<svg width="120" height="115" viewBox="0 0 120 115" fill="none" xmlns="http://www.w3.org/2000/svg">
<path fill-rule="evenodd" clip-rule="evenodd" d="M0 7.28576C0 5.07662 1.79086 3.28577 4 3.28577H112.418C114.627 3.28577 116.418 5.07663 116.418 7.28577V111C116.418 113.209 114.627 115 112.418 115H4.00001C1.79087 115 0 113.209 0 111V7.28576ZM80.5517 15.045C80.5517 17.3181 78.709 19.1608 76.4359 19.1608C74.1628 19.1608 72.3201 17.3181 72.3201 15.045C72.3201 12.772 74.1628 10.9293 76.4359 10.9293C78.709 10.9293 80.5517 12.772 80.5517 15.045ZM89.959 19.1608C92.2321 19.1608 94.0748 17.3181 94.0748 15.045C94.0748 12.772 92.2321 10.9293 89.959 10.9293C87.6859 10.9293 85.8432 12.772 85.8432 15.045C85.8432 17.3181 87.6859 19.1608 89.959 19.1608ZM107.599 15.045C107.599 17.3181 105.756 19.1608 103.483 19.1608C101.21 19.1608 99.3671 17.3181 99.3671 15.045C99.3671 12.772 101.21 10.9293 103.483 10.9293C105.756 10.9293 107.599 12.772 107.599 15.045ZM6.87985 26.2163C6.32756 26.2163 5.87985 26.664 5.87985 27.2163V108.708C5.87985 109.26 6.32757 109.708 6.87985 109.708H110.126C110.679 109.708 111.126 109.26 111.126 108.708V27.2163C111.126 26.664 110.679 26.2163 110.126 26.2163H6.87985Z" fill="#D9D9D9"/>
<mask id="path-2-inside-1_31_171" fill="white">
<path fill-rule="evenodd" clip-rule="evenodd" d="M3.28564 4C3.28564 1.79086 5.07651 0 7.28564 0H115.704C117.913 0 119.704 1.79086 119.704 4V107.714C119.704 109.923 117.913 111.714 115.704 111.714H7.28565C5.07651 111.714 3.28564 109.923 3.28564 107.714V4ZM83.8374 11.7593C83.8374 14.0324 81.9947 15.8751 79.7216 15.8751C77.4485 15.8751 75.6058 14.0324 75.6058 11.7593C75.6058 9.48624 77.4485 7.64354 79.7216 7.64354C81.9947 7.64354 83.8374 9.48624 83.8374 11.7593ZM93.2447 15.8751C95.5178 15.8751 97.3605 14.0324 97.3605 11.7593C97.3605 9.48624 95.5178 7.64354 93.2447 7.64354C90.9716 7.64354 89.1289 9.48624 89.1289 11.7593C89.1289 14.0324 90.9716 15.8751 93.2447 15.8751ZM110.884 11.7593C110.884 14.0324 109.042 15.8751 106.769 15.8751C104.495 15.8751 102.653 14.0324 102.653 11.7593C102.653 9.48624 104.495 7.64354 106.769 7.64354C109.042 7.64354 110.884 9.48624 110.884 11.7593ZM10.1656 22.9306C9.61328 22.9306 9.16556 23.3783 9.16556 23.9306V105.422C9.16556 105.975 9.61328 106.422 10.1656 106.422H113.412C113.964 106.422 114.412 105.975 114.412 105.422V23.9306C114.412 23.3783 113.964 22.9306 113.412 22.9306H10.1656Z"/>
</mask>
<path fill-rule="evenodd" clip-rule="evenodd" d="M3.28564 4C3.28564 1.79086 5.07651 0 7.28564 0H115.704C117.913 0 119.704 1.79086 119.704 4V107.714C119.704 109.923 117.913 111.714 115.704 111.714H7.28565C5.07651 111.714 3.28564 109.923 3.28564 107.714V4ZM83.8374 11.7593C83.8374 14.0324 81.9947 15.8751 79.7216 15.8751C77.4485 15.8751 75.6058 14.0324 75.6058 11.7593C75.6058 9.48624 77.4485 7.64354 79.7216 7.64354C81.9947 7.64354 83.8374 9.48624 83.8374 11.7593ZM93.2447 15.8751C95.5178 15.8751 97.3605 14.0324 97.3605 11.7593C97.3605 9.48624 95.5178 7.64354 93.2447 7.64354C90.9716 7.64354 89.1289 9.48624 89.1289 11.7593C89.1289 14.0324 90.9716 15.8751 93.2447 15.8751ZM110.884 11.7593C110.884 14.0324 109.042 15.8751 106.769 15.8751C104.495 15.8751 102.653 14.0324 102.653 11.7593C102.653 9.48624 104.495 7.64354 106.769 7.64354C109.042 7.64354 110.884 9.48624 110.884 11.7593ZM10.1656 22.9306C9.61328 22.9306 9.16556 23.3783 9.16556 23.9306V105.422C9.16556 105.975 9.61328 106.422 10.1656 106.422H113.412C113.964 106.422 114.412 105.975 114.412 105.422V23.9306C114.412 23.3783 113.964 22.9306 113.412 22.9306H10.1656Z" fill="#D58B48"/>
<path d="M7.28564 -1C4.52422 -1 2.28564 1.23857 2.28564 4H4.28564C4.28564 2.34314 5.62879 1 7.28564 1V-1ZM115.704 -1H7.28564V1H115.704V-1ZM120.704 4C120.704 1.23857 118.465 -1 115.704 -1V1C117.361 1 118.704 2.34315 118.704 4H120.704ZM120.704 107.714V4H118.704V107.714H120.704ZM115.704 112.714C118.465 112.714 120.704 110.476 120.704 107.714H118.704C118.704 109.371 117.361 110.714 115.704 110.714V112.714ZM7.28565 112.714H115.704V110.714H7.28565V112.714ZM2.28564 107.714C2.28564 110.476 4.52423 112.714 7.28565 112.714V110.714C5.62879 110.714 4.28564 109.371 4.28564 107.714H2.28564ZM2.28564 4V107.714H4.28564V4H2.28564ZM79.7216 16.8751C82.547 16.8751 84.8374 14.5847 84.8374 11.7593H82.8374C82.8374 13.4801 81.4424 14.8751 79.7216 14.8751V16.8751ZM74.6058 11.7593C74.6058 14.5847 76.8962 16.8751 79.7216 16.8751V14.8751C78.0008 14.8751 76.6058 13.4801 76.6058 11.7593H74.6058ZM79.7216 6.64354C76.8962 6.64354 74.6058 8.93395 74.6058 11.7593H76.6058C76.6058 10.0385 78.0008 8.64354 79.7216 8.64354V6.64354ZM84.8374 11.7593C84.8374 8.93395 82.547 6.64354 79.7216 6.64354V8.64354C81.4424 8.64354 82.8374 10.0385 82.8374 11.7593H84.8374ZM96.3605 11.7593C96.3605 13.4801 94.9655 14.8751 93.2447 14.8751V16.8751C96.0701 16.8751 98.3605 14.5847 98.3605 11.7593H96.3605ZM93.2447 8.64354C94.9655 8.64354 96.3605 10.0385 96.3605 11.7593H98.3605C98.3605 8.93395 96.0701 6.64354 93.2447 6.64354V8.64354ZM90.1289 11.7593C90.1289 10.0385 91.5239 8.64354 93.2447 8.64354V6.64354C90.4193 6.64354 88.1289 8.93395 88.1289 11.7593H90.1289ZM93.2447 14.8751C91.5239 14.8751 90.1289 13.4801 90.1289 11.7593H88.1289C88.1289 14.5847 90.4193 16.8751 93.2447 16.8751V14.8751ZM106.769 16.8751C109.594 16.8751 111.884 14.5847 111.884 11.7593H109.884C109.884 13.4801 108.489 14.8751 106.769 14.8751V16.8751ZM101.653 11.7593C101.653 14.5847 103.943 16.8751 106.769 16.8751V14.8751C105.048 14.8751 103.653 13.4801 103.653 11.7593H101.653ZM106.769 6.64354C103.943 6.64354 101.653 8.93395 101.653 11.7593H103.653C103.653 10.0385 105.048 8.64354 106.769 8.64354V6.64354ZM111.884 11.7593C111.884 8.93396 109.594 6.64354 106.769 6.64354V8.64354C108.489 8.64354 109.884 10.0385 109.884 11.7593H111.884ZM10.1656 23.9306V23.9306V21.9306C9.06099 21.9306 8.16556 22.826 8.16556 23.9306H10.1656ZM10.1656 105.422V23.9306H8.16556V105.422H10.1656ZM10.1656 105.422H10.1656H8.16556C8.16556 106.527 9.061 107.422 10.1656 107.422V105.422ZM113.412 105.422H10.1656V107.422H113.412V105.422ZM113.412 105.422V107.422C114.517 107.422 115.412 106.527 115.412 105.422H113.412ZM113.412 23.9306V105.422H115.412V23.9306H113.412ZM113.412 23.9306H115.412C115.412 22.826 114.517 21.9306 113.412 21.9306V23.9306ZM10.1656 23.9306H113.412V21.9306H10.1656V23.9306Z" fill="black" mask="url(#path-2-inside-1_31_171)"/>
<rect x="17.3967" y="30.8453" width="87.8887" height="38.2645" rx="1" fill="black" stroke="black"/>
<path d="M17 68.0136C21.8333 61.6802 32.7 49.0136 37.5 49.0136C43.5 49.0136 53.5 56.0136 60 56.0136C66.5 56.0136 85 42.5136 90 43.0136C94 43.4136 101.333 48.5136 104.5 51.0135V68.0136H17Z" fill="#565656" stroke="black"/>
<rect x="19.5" y="78.5" width="37" height="1" rx="0.5" fill="black" stroke="black"/>
<rect x="19.5" y="82.5" width="37" height="1" rx="0.5" fill="black" stroke="black"/>
<rect x="19.5" y="86.5" width="37" height="1" rx="0.5" fill="black" stroke="black"/>
<rect x="19.5" y="90.5" width="29" height="1" rx="0.5" fill="black" stroke="black"/>
<rect x="19.5" y="94.5" width="37" height="1" rx="0.5" fill="black" stroke="black"/>
<rect x="64.3467" y="78.1122" width="40.1579" height="20.1669" rx="0.5" fill="black" stroke="black"/>
</svg>
