<svg width="77" height="80" viewBox="0 0 77 80" fill="none" xmlns="http://www.w3.org/2000/svg">
<path d="M15.462 47.8114L14.1632 48.5619L15.462 47.8114ZM75.7097 66.3444C76.3382 66.8841 76.4103 67.8311 75.8706 68.4596L67.0761 78.7021C66.5365 79.3306 65.5895 79.4026 64.9609 78.863C64.3324 78.3233 64.2604 77.3763 64.8 76.7478L72.6173 67.6434L63.5129 59.8261C62.8844 59.2864 62.8124 58.3394 63.352 57.7109C63.8917 57.0823 64.8387 57.0103 65.4673 57.55L75.7097 66.3444ZM1.49145 0.00499579C15.7629 2.50582 23.3854 10.7466 27.5743 19.5818C31.7124 28.3101 32.5209 37.6916 33.256 42.434L30.2914 42.8935C29.5176 37.9014 28.7643 29.0946 24.8635 20.867C21.0134 12.7462 14.1198 5.26362 0.973639 2.95997L1.49145 0.00499579ZM33.1672 43.2189C30.7763 49.2201 27.0318 52.197 23.1882 52.7697C19.4167 53.3316 15.8618 51.5013 14.1632 48.5619L16.7607 47.0609C17.8385 48.926 20.1837 50.1842 22.746 49.8024C25.2363 49.4314 28.2593 47.4322 30.3802 42.1086L33.1672 43.2189ZM14.1632 48.5619C12.9947 46.5398 12.3952 44.3189 12.4972 42.2763C12.5997 40.2232 13.4285 38.2566 15.2068 37.0322C16.9728 35.8164 19.3836 35.5335 22.2447 36.2094C25.1046 36.8851 28.5605 38.5453 32.6416 41.4403L30.9059 43.8872C27.0046 41.1198 23.9058 39.6845 21.5549 39.1291C19.2052 38.5739 17.749 38.9242 16.9081 39.5032C16.0795 40.0737 15.5615 41.0635 15.4934 42.4259C15.4249 43.7987 15.8311 45.4522 16.7607 47.0609L14.1632 48.5619ZM31.7737 42.6637C33.1258 42.0142 33.1258 42.0142 33.1258 42.0142C33.1258 42.0143 33.1259 42.0143 33.1259 42.0145C33.1261 42.0148 33.1263 42.0153 33.1266 42.016C33.1273 42.0174 33.1284 42.0196 33.1299 42.0227C33.1328 42.0288 33.1373 42.0382 33.1434 42.0507C33.1555 42.0758 33.1739 42.1137 33.1982 42.1637C33.2467 42.2636 33.3191 42.4119 33.4135 42.6035C33.6023 42.9868 33.8789 43.5431 34.2284 44.2315C34.9276 45.6091 35.9172 47.513 37.0783 49.6178C39.4176 53.8586 42.3927 58.8034 45.0628 61.9386L42.7788 63.8838C39.8959 60.4986 36.7975 55.3197 34.4515 51.0668C33.2699 48.9249 32.264 46.9895 31.5533 45.5894C31.1978 44.8891 30.9158 44.322 30.7223 43.9291C30.6255 43.7326 30.5508 43.5797 30.5001 43.4753C30.4747 43.4232 30.4554 43.3831 30.4422 43.3559C30.4356 43.3423 30.4306 43.3319 30.4272 43.3248C30.4254 43.3212 30.4241 43.3184 30.4232 43.3165C30.4227 43.3156 30.4224 43.3148 30.4221 43.3143C30.422 43.314 30.4219 43.3137 30.4218 43.3136C30.4217 43.3134 30.4216 43.3132 31.7737 42.6637ZM45.0628 61.9386C46.2047 63.2795 47.9736 64.3051 50.269 65.0451C52.5558 65.7823 55.2568 66.201 58.1304 66.4031C63.8837 66.8077 70.089 66.3313 74.6188 65.9868L74.8463 68.9782C70.3525 69.32 63.9285 69.8182 57.92 69.3957C54.9127 69.1842 51.9497 68.7389 49.3486 67.9004C46.7562 67.0647 44.4133 65.803 42.7788 63.8838L45.0628 61.9386Z" fill="#C37935"/>
</svg>
