<svg width="120" height="115" viewBox="0 0 120 115" fill="none" xmlns="http://www.w3.org/2000/svg">
<path fill-rule="evenodd" clip-rule="evenodd" d="M0 7.28576C0 5.07662 1.79086 3.28577 4 3.28577H112.418C114.627 3.28577 116.418 5.07663 116.418 7.28577V111C116.418 113.209 114.627 115 112.418 115H4.00001C1.79087 115 0 113.209 0 111V7.28576ZM80.5517 15.045C80.5517 17.3181 78.709 19.1608 76.4359 19.1608C74.1628 19.1608 72.3201 17.3181 72.3201 15.045C72.3201 12.772 74.1628 10.9293 76.4359 10.9293C78.709 10.9293 80.5517 12.772 80.5517 15.045ZM89.959 19.1608C92.2321 19.1608 94.0748 17.3181 94.0748 15.045C94.0748 12.772 92.2321 10.9293 89.959 10.9293C87.6859 10.9293 85.8432 12.772 85.8432 15.045C85.8432 17.3181 87.6859 19.1608 89.959 19.1608ZM107.599 15.045C107.599 17.3181 105.756 19.1608 103.483 19.1608C101.21 19.1608 99.3671 17.3181 99.3671 15.045C99.3671 12.772 101.21 10.9293 103.483 10.9293C105.756 10.9293 107.599 12.772 107.599 15.045ZM6.87985 26.2163C6.32756 26.2163 5.87985 26.664 5.87985 27.2163V108.708C5.87985 109.26 6.32757 109.708 6.87985 109.708H110.126C110.679 109.708 111.126 109.26 111.126 108.708V27.2163C111.126 26.664 110.679 26.2163 110.126 26.2163H6.87985Z" fill="#D9D9D9"/>
<rect x="14.1111" y="34.131" width="87.8887" height="38.2645" rx="1" stroke="#D9D9D9"/>
<path d="M16.4285 36.7252L101.857 70.3525" stroke="#D9D9D9" stroke-linecap="round"/>
<path d="M101.857 36.6322L16.4285 70.2262" stroke="#D9D9D9" stroke-linecap="round"/>
<rect x="15.7869" y="81.3978" width="37.806" height="20.1669" rx="0.5" stroke="#D9D9D9"/>
<rect x="61.061" y="81.3978" width="40.1579" height="20.1669" rx="0.5" stroke="#D9D9D9"/>
<path fill-rule="evenodd" clip-rule="evenodd" d="M3.28564 4C3.28564 1.79086 5.07651 0 7.28564 0H115.704C117.913 0 119.704 1.79086 119.704 4V107.714C119.704 109.923 117.913 111.714 115.704 111.714H7.28565C5.07651 111.714 3.28564 109.923 3.28564 107.714V4ZM83.8374 11.7593C83.8374 14.0324 81.9947 15.8751 79.7216 15.8751C77.4485 15.8751 75.6058 14.0324 75.6058 11.7593C75.6058 9.48624 77.4485 7.64354 79.7216 7.64354C81.9947 7.64354 83.8374 9.48624 83.8374 11.7593ZM93.2447 15.8751C95.5178 15.8751 97.3605 14.0324 97.3605 11.7593C97.3605 9.48624 95.5178 7.64354 93.2447 7.64354C90.9716 7.64354 89.1289 9.48624 89.1289 11.7593C89.1289 14.0324 90.9716 15.8751 93.2447 15.8751ZM110.884 11.7593C110.884 14.0324 109.042 15.8751 106.769 15.8751C104.495 15.8751 102.653 14.0324 102.653 11.7593C102.653 9.48624 104.495 7.64354 106.769 7.64354C109.042 7.64354 110.884 9.48624 110.884 11.7593ZM10.1656 22.9306C9.61328 22.9306 9.16556 23.3783 9.16556 23.9306V105.422C9.16556 105.975 9.61328 106.422 10.1656 106.422H113.412C113.964 106.422 114.412 105.975 114.412 105.422V23.9306C114.412 23.3783 113.964 22.9306 113.412 22.9306H10.1656Z" fill="black"/>
<rect x="17.3967" y="30.8453" width="87.8887" height="38.2645" rx="1" stroke="black"/>
<path d="M19.7141 33.4396L105.143 67.0669" stroke="black" stroke-linecap="round"/>
<path d="M105.143 33.3464L19.7143 66.9405" stroke="black" stroke-linecap="round"/>
<rect x="19.0728" y="78.1122" width="37.806" height="20.1669" rx="0.5" stroke="black"/>
<rect x="64.3467" y="78.1122" width="40.1579" height="20.1669" rx="0.5" stroke="black"/>
</svg>
