<svg width="42" height="24" viewBox="0 0 42 24" fill="none" xmlns="http://www.w3.org/2000/svg">
<g id="freccia">
<g id="Union">
<path fill-rule="evenodd" clip-rule="evenodd" d="M39.6208 1.40121C39.8127 1.20266 40.1292 1.1973 40.3278 1.38922C40.5263 1.58115 40.5317 1.89769 40.3397 2.09623L21.1924 21.9038C21.071 22.0294 20.8998 22.0777 20.7401 22.0477C20.5804 22.0777 20.4092 22.0294 20.2879 21.9038L1.14051 2.09623C0.948581 1.89769 0.953946 1.58115 1.15249 1.38923C1.35103 1.1973 1.66757 1.20267 1.85949 1.40121L20.7401 20.9329L39.6208 1.40121Z" fill="white"/>
<path d="M40.3278 1.38922L41.0228 0.670236L40.3278 1.38922ZM39.6208 1.40121L40.3397 2.09623L39.6208 1.40121ZM40.3397 2.09623L41.0587 2.79125L41.0587 2.79125L40.3397 2.09623ZM21.1924 21.9038L21.9114 22.5989H21.9114L21.1924 21.9038ZM20.7401 22.0477L20.9247 21.0649L20.7401 21.0302L20.5555 21.0649L20.7401 22.0477ZM20.2879 21.9038L19.5689 22.5989L19.5689 22.5989L20.2879 21.9038ZM1.14051 2.09623L0.421518 2.79125L1.14051 2.09623ZM1.15249 1.38923L0.457467 0.670239L0.457467 0.670239L1.15249 1.38923ZM1.85949 1.40121L2.57848 0.706188V0.706188L1.85949 1.40121ZM20.7401 20.9329L20.0211 21.6279L20.7401 22.3717L21.4591 21.6279L20.7401 20.9329ZM41.0228 0.670236C40.4272 0.0944616 39.4775 0.110556 38.9018 0.706186L40.3397 2.09623C40.1478 2.29477 39.8313 2.30014 39.6327 2.10821L41.0228 0.670236ZM41.0587 2.79125C41.6345 2.19563 41.6184 1.24601 41.0228 0.670236L39.6327 2.10821C39.4342 1.91628 39.4288 1.59975 39.6208 1.40121L41.0587 2.79125ZM21.9114 22.5989L41.0587 2.79125L39.6208 1.40121L20.4734 21.2088L21.9114 22.5989ZM20.5555 23.0305C21.0316 23.1199 21.5466 22.9762 21.9114 22.5989L20.4734 21.2088C20.5955 21.0825 20.768 21.0355 20.9247 21.0649L20.5555 23.0305ZM20.5555 21.0649C20.7122 21.0355 20.8848 21.0826 21.0068 21.2088L19.5689 22.5989C19.9337 22.9762 20.4487 23.12 20.9248 23.0305L20.5555 21.0649ZM21.0069 21.2088L1.85949 1.40121L0.421518 2.79125L19.5689 22.5989L21.0069 21.2088ZM1.85949 1.40121C2.05142 1.59975 2.04605 1.91629 1.84751 2.10822L0.457467 0.670239C-0.138162 1.24601 -0.154257 2.19562 0.421518 2.79125L1.85949 1.40121ZM1.84751 2.10822C1.64897 2.30014 1.33243 2.29478 1.14051 2.09623L2.57848 0.706188C2.00271 0.110559 1.0531 0.0944635 0.457467 0.670239L1.84751 2.10822ZM1.14051 2.09623L20.0211 21.6279L21.4591 20.2379L2.57848 0.706188L1.14051 2.09623ZM38.9018 0.706186L20.0211 20.2379L21.4591 21.6279L40.3397 2.09623L38.9018 0.706186Z" fill="white"/>
</g>
</g>
</svg>
