<svg width="115" height="113" viewBox="0 0 115 113" fill="none" xmlns="http://www.w3.org/2000/svg">
<path d="M16.8018 11.0607L13.091 14.4597L21.1455 22.5846L24.8486 19.1856L16.798 11.0607H16.8018ZM53.8249 11.4254C52.5562 11.4409 51.2721 11.5146 49.9803 11.6737C49.9418 11.6737 49.9034 11.666 49.8649 11.6737C34.2711 13.478 21.8606 26.1931 19.7038 41.8611C17.9814 54.4714 23.1332 65.9062 31.7182 73.2706C35.23 76.2953 37.6053 80.446 38.4464 85.0274V108.308H47.2121C48.55 110.625 50.9914 112.188 53.8249 112.188C56.6584 112.188 59.0997 110.625 60.4377 108.308H69.2034V92.7876H69.5648V88.178C69.5648 82.4898 72.4944 76.755 77.2541 72.2967C83.6208 65.8635 88.4266 56.7258 88.4266 46.2301C88.4266 27.0623 72.7943 11.2469 53.8249 11.4254ZM53.8249 19.1856C68.6844 18.9761 80.7373 31.2528 80.7373 46.2301C80.7373 54.355 77.008 61.51 71.8447 66.7171L71.9677 66.8413C66.8366 71.6166 63.5186 78.0502 62.5868 85.0313H45.7704C44.9246 78.3808 42.0988 71.9436 36.7586 67.3263C29.9651 61.5061 25.9167 52.737 27.27 42.835C28.9501 30.6126 38.777 20.7842 50.8184 19.4378C51.8125 19.298 52.8138 19.2151 53.8172 19.1895L53.8249 19.1856ZM0 50.355V53.9903H11.5339V50.355H0ZM23.1807 80.057L15.1301 88.178L18.5042 91.2162L26.5472 83.0912L23.1807 80.057ZM84.3862 80.057L81.0987 83.0912L89.1456 91.2162L92.4369 88.178L84.3862 80.057ZM46.1356 92.7915H61.5142V100.552H46.1356V92.7915Z" fill="#D9D9D9" fill-opacity="0.86"/>
<path fill-rule="evenodd" clip-rule="evenodd" d="M88.2028 40.6092C98.225 37.095 106.555 32.5395 104.342 22.5173C106.095 11.3828 99.2731 8.33292 92.7384 5.41144C91.0232 4.64462 89.3277 3.88665 87.8124 2.99365C86.0752 3.94911 84.2156 4.61474 82.3812 5.27136C75.9693 7.56651 69.8652 9.75147 70.3712 23.8189C70.3712 33.0919 78.3108 38.5267 88.2028 40.6092ZM87.5521 26.2919C89.9243 26.2919 91.8473 24.3689 91.8473 21.9967C91.8473 19.6245 89.9243 17.7015 87.5521 17.7015C85.18 17.7015 83.2569 19.6245 83.2569 21.9967C83.2569 24.3689 85.18 26.2919 87.5521 26.2919Z" fill="#1F1D1D"/>
<path d="M105.497 23.4482C105.145 23.0469 104.95 22.5309 104.95 21.9967C104.95 21.4624 105.145 20.9464 105.497 20.5451L108.312 17.378C108.622 17.032 108.815 16.5966 108.862 16.1343C108.91 15.672 108.81 15.2065 108.576 14.8047L104.178 7.19492C103.946 6.79358 103.595 6.47546 103.172 6.28589C102.749 6.09633 102.278 6.045 101.824 6.13922L97.6899 6.97498C97.1638 7.0837 96.6161 6.99607 96.1502 6.72865C95.6842 6.46124 95.3323 6.03252 95.1608 5.5234L93.8192 1.49856C93.6717 1.06172 93.3906 0.682298 93.0157 0.413925C92.6408 0.145552 92.191 0.00180083 91.73 0.00299105H82.933C82.4535 -0.0220422 81.9789 0.110598 81.5817 0.380653C81.1846 0.650708 80.8868 1.04333 80.7338 1.49856L79.5022 5.5234C79.3307 6.03252 78.9788 6.46124 78.5128 6.72865C78.0469 6.99607 77.4992 7.0837 76.9731 6.97498L72.7286 6.13922C72.2988 6.07848 71.8606 6.14631 71.4692 6.33418C71.0778 6.52204 70.7508 6.82153 70.5294 7.19492L66.1309 14.8047C65.8915 15.202 65.7839 15.6649 65.8234 16.127C65.8629 16.5892 66.0475 17.0271 66.3508 17.378L69.1439 20.5451C69.4964 20.9464 69.6909 21.4624 69.6909 21.9967C69.6909 22.5309 69.4964 23.0469 69.1439 23.4482L66.3508 26.6153C66.0475 26.9663 65.8629 27.4041 65.8234 27.8663C65.7839 28.3284 65.8915 28.7913 66.1309 29.1886L70.5294 36.7984C70.7605 37.1997 71.1124 37.5179 71.535 37.7074C71.9575 37.897 72.4291 37.9483 72.8825 37.8541L77.0171 37.0183C77.5432 36.9096 78.0909 36.9972 78.5568 37.2647C79.0227 37.5321 79.3747 37.9608 79.5462 38.4699L80.8877 42.4948C81.0408 42.95 81.3386 43.3426 81.7357 43.6127C82.1328 43.8827 82.6074 44.0154 83.087 43.9903H91.8839C92.345 43.9915 92.7947 43.8478 93.1696 43.5794C93.5445 43.311 93.8256 42.9316 93.9732 42.4948L95.3147 38.4699C95.4862 37.9608 95.8382 37.5321 96.3041 37.2647C96.77 36.9972 97.3177 36.9096 97.8438 37.0183L101.978 37.8541C102.432 37.9483 102.903 37.897 103.326 37.7074C103.748 37.5179 104.1 37.1997 104.332 36.7984L108.73 29.1886C108.964 28.7868 109.064 28.3214 109.016 27.8591C108.969 27.3968 108.776 26.9614 108.466 26.6153L105.497 23.4482ZM102.22 26.3954L103.98 28.3748L101.165 33.2574L98.5696 32.7296C96.9856 32.4058 95.3379 32.6748 93.9393 33.4857C92.5406 34.2966 91.4884 35.5928 90.9822 37.1283L90.1465 39.5916H84.5165L83.7248 37.0843C83.2186 35.5488 82.1663 34.2526 80.7677 33.4417C79.369 32.6309 77.7213 32.3618 76.1374 32.6856L73.5423 33.2134L70.6833 28.3528L72.4427 26.3734C73.5246 25.1637 74.1228 23.5976 74.1228 21.9747C74.1228 20.3517 73.5246 18.7856 72.4427 17.5759L70.6833 15.5965L73.4983 10.7579L76.0934 11.2857C77.6774 11.6095 79.325 11.3405 80.7237 10.5296C82.1224 9.71873 83.1746 8.42252 83.6808 6.88701L84.5165 4.40172H90.1465L90.9822 6.909C91.4884 8.44451 92.5406 9.74072 93.9393 10.5516C95.3379 11.3625 96.9856 11.6315 98.5696 11.3077L101.165 10.7799L103.98 15.6625L102.22 17.6419C101.151 18.8488 100.56 20.4058 100.56 22.0187C100.56 23.6315 101.151 25.1885 102.22 26.3954ZM87.3315 13.1992C85.5916 13.1992 83.8908 13.7152 82.4442 14.6818C80.9975 15.6485 79.87 17.0225 79.2042 18.63C78.5384 20.2375 78.3642 22.0064 78.7036 23.713C79.043 25.4195 79.8809 26.9871 81.1111 28.2174C82.3414 29.4478 83.9089 30.2856 85.6153 30.6251C87.3217 30.9645 89.0905 30.7903 90.6979 30.1245C92.3054 29.4586 93.6792 28.331 94.6459 26.8843C95.6125 25.4375 96.1284 23.7366 96.1284 21.9967C96.1284 19.6634 95.2016 17.4258 93.5519 15.7759C91.9021 14.1261 89.6646 13.1992 87.3315 13.1992ZM87.3315 26.3954C86.4616 26.3954 85.6112 26.1374 84.8878 25.6541C84.1645 25.1707 83.6008 24.4837 83.2678 23.68C82.9349 22.8762 82.8478 21.9918 83.0175 21.1385C83.1873 20.2852 83.6062 19.5015 84.2213 18.8863C84.8364 18.2711 85.6202 17.8522 86.4734 17.6824C87.3266 17.5127 88.211 17.5998 89.0147 17.9328C89.8184 18.2657 90.5054 18.8295 90.9887 19.5529C91.472 20.2762 91.73 21.1267 91.73 21.9967C91.73 23.1633 91.2665 24.2821 90.4417 25.107C89.6168 25.932 88.498 26.3954 87.3315 26.3954Z" fill="#D9D9D9" fill-opacity="0.86"/>
<path d="M22.1202 11.0607L18.4093 14.4597L26.4639 22.5846L30.167 19.1856L22.1163 11.0607H22.1202ZM59.1432 11.4254C57.8745 11.4409 56.5904 11.5146 55.2986 11.6737C55.2602 11.6737 55.2217 11.666 55.1833 11.6737C39.5894 13.478 27.179 26.1931 25.0221 41.8611C23.2997 54.4714 28.4515 65.9062 37.0366 73.2706C40.5483 76.2953 42.9236 80.446 43.7647 85.0274V108.308H52.5305C53.8684 110.625 56.3098 112.188 59.1432 112.188C61.9767 112.188 64.4181 110.625 65.756 108.308H74.5218V92.7876H74.8832V88.178C74.8832 82.4898 77.8128 76.755 82.5725 72.2967C88.9392 65.8635 93.745 56.7258 93.745 46.2301C93.745 27.0623 78.1127 11.2469 59.1432 11.4254ZM59.1432 19.1856C74.0028 18.9761 86.0557 31.2528 86.0557 46.2301C86.0557 54.355 82.3264 61.51 77.1631 66.7171L77.2861 66.8413C72.1549 71.6166 68.837 78.0502 67.9052 85.0313H51.0887C50.2429 78.3808 47.4171 71.9436 42.0769 67.3263C35.2834 61.5061 31.235 52.737 32.5884 42.835C34.2685 30.6126 44.0953 20.7842 56.1367 19.4378C57.1309 19.298 58.1321 19.2151 59.1356 19.1895L59.1432 19.1856ZM5.31836 50.355V53.9903H16.8523V50.355H5.31836ZM28.4991 80.057L20.4484 88.178L23.8226 91.2162L31.8656 83.0912L28.4991 80.057ZM89.7046 80.057L86.4171 83.0912L94.4639 91.2162L97.7553 88.178L89.7046 80.057ZM51.454 92.7915H66.8325V100.552H51.454V92.7915Z" fill="black"/>
<path fill-rule="evenodd" clip-rule="evenodd" d="M93.5212 40.6092C103.543 37.095 111.873 32.5395 109.661 22.5173C111.413 11.3828 104.591 8.33292 98.0567 5.41144C96.3415 4.64462 94.6461 3.88665 93.1307 2.99365C91.3935 3.94911 89.534 4.61474 87.6996 5.27136C81.2876 7.56651 75.1835 9.75147 75.6896 23.8189C75.6896 33.0919 83.6292 38.5267 93.5212 40.6092ZM92.8705 26.2919C95.2427 26.2919 97.1657 24.3689 97.1657 21.9967C97.1657 19.6245 95.2427 17.7015 92.8705 17.7015C90.4983 17.7015 88.5753 19.6245 88.5753 21.9967C88.5753 24.3689 90.4983 26.2919 92.8705 26.2919Z" fill="#D58B48"/>
<path d="M110.816 23.4482C110.463 23.0469 110.269 22.5309 110.269 21.9967C110.269 21.4624 110.463 20.9464 110.816 20.5451L113.631 17.378C113.941 17.032 114.134 16.5966 114.181 16.1343C114.229 15.672 114.128 15.2065 113.895 14.8047L109.496 7.19492C109.265 6.79358 108.913 6.47546 108.491 6.28589C108.068 6.09633 107.597 6.045 107.143 6.13922L103.009 6.97498C102.483 7.0837 101.935 6.99607 101.469 6.72865C101.003 6.46124 100.651 6.03252 100.48 5.5234L99.1381 1.49856C98.9905 1.06172 98.7094 0.682298 98.3345 0.413925C97.9596 0.145552 97.5099 0.00180083 97.0488 0.00299105H88.2519C87.7723 -0.0220422 87.2977 0.110598 86.9006 0.380653C86.5035 0.650708 86.2057 1.04333 86.0526 1.49856L84.8211 5.5234C84.6495 6.03252 84.2976 6.46124 83.8317 6.72865C83.3657 6.99607 82.8181 7.0837 82.292 6.97498L78.0475 6.13922C77.6176 6.07848 77.1794 6.14631 76.7881 6.33418C76.3967 6.52204 76.0697 6.82153 75.8482 7.19492L71.4498 14.8047C71.2104 15.202 71.1028 15.6649 71.1423 16.127C71.1818 16.5892 71.3664 17.0271 71.6697 17.378L74.4627 20.5451C74.8153 20.9464 75.0097 21.4624 75.0097 21.9967C75.0097 22.5309 74.8153 23.0469 74.4627 23.4482L71.6697 26.6153C71.3664 26.9663 71.1818 27.4041 71.1423 27.8663C71.1028 28.3284 71.2104 28.7913 71.4498 29.1886L75.8482 36.7984C76.0794 37.1997 76.4313 37.5179 76.8538 37.7074C77.2764 37.897 77.748 37.9483 78.2014 37.8541L82.3359 37.0183C82.862 36.9096 83.4097 36.9972 83.8757 37.2647C84.3416 37.5321 84.6935 37.9608 84.8651 38.4699L86.2066 42.4948C86.3596 42.95 86.6574 43.3426 87.0545 43.6127C87.4517 43.8827 87.9262 44.0154 88.4058 43.9903H97.2027C97.6638 43.9915 98.1136 43.8478 98.4885 43.5794C98.8634 43.311 99.1445 42.9316 99.292 42.4948L100.634 38.4699C100.805 37.9608 101.157 37.5321 101.623 37.2647C102.089 36.9972 102.637 36.9096 103.163 37.0183L107.297 37.8541C107.751 37.9483 108.222 37.897 108.645 37.7074C109.067 37.5179 109.419 37.1997 109.65 36.7984L114.049 29.1886C114.282 28.7868 114.383 28.3214 114.335 27.8591C114.288 27.3968 114.095 26.9614 113.785 26.6153L110.816 23.4482ZM107.539 26.3954L109.299 28.3748L106.483 33.2574L103.888 32.7296C102.304 32.4058 100.657 32.6748 99.2581 33.4857C97.8595 34.2966 96.8072 35.5928 96.3011 37.1283L95.4654 39.5916H89.8353L89.0436 37.0843C88.5375 35.5488 87.4852 34.2526 86.0865 33.4417C84.6879 32.6309 83.0402 32.3618 81.4563 32.6856L78.8612 33.2134L76.0022 28.3528L77.7615 26.3734C78.8435 25.1637 79.4416 23.5976 79.4416 21.9747C79.4416 20.3517 78.8435 18.7856 77.7615 17.5759L76.0022 15.5965L78.8172 10.7579L81.4123 11.2857C82.9962 11.6095 84.6439 11.3405 86.0425 10.5296C87.4412 9.71873 88.4935 8.42252 88.9996 6.88701L89.8353 4.40172H95.4654L96.3011 6.909C96.8072 8.44451 97.8595 9.74072 99.2581 10.5516C100.657 11.3625 102.304 11.6315 103.888 11.3077L106.483 10.7799L109.299 15.6625L107.539 17.6419C106.469 18.8488 105.879 20.4058 105.879 22.0187C105.879 23.6315 106.469 25.1885 107.539 26.3954ZM92.6503 13.1992C90.9105 13.1992 89.2097 13.7152 87.763 14.6818C86.3164 15.6485 85.1889 17.0225 84.523 18.63C83.8572 20.2375 83.683 22.0064 84.0224 23.713C84.3619 25.4195 85.1997 26.9871 86.43 28.2174C87.6602 29.4478 89.2277 30.2856 90.9341 30.6251C92.6406 30.9645 94.4093 30.7903 96.0168 30.1245C97.6242 29.4586 98.9981 28.331 99.9647 26.8843C100.931 25.4375 101.447 23.7366 101.447 21.9967C101.447 19.6634 100.52 17.4258 98.8707 15.7759C97.221 14.1261 94.9834 13.1992 92.6503 13.1992ZM92.6503 26.3954C91.7804 26.3954 90.93 26.1374 90.2067 25.6541C89.4834 25.1707 88.9196 24.4837 88.5867 23.68C88.2538 22.8762 88.1667 21.9918 88.3364 21.1385C88.5061 20.2852 88.925 19.5015 89.5402 18.8863C90.1553 18.2711 90.939 17.8522 91.7922 17.6824C92.6455 17.5127 93.5298 17.5998 94.3336 17.9328C95.1373 18.2657 95.8242 18.8295 96.3075 19.5529C96.7908 20.2762 97.0488 21.1267 97.0488 21.9967C97.0488 23.1633 96.5854 24.2821 95.7605 25.107C94.9356 25.932 93.8169 26.3954 92.6503 26.3954Z" fill="black"/>
<path d="M61.6227 28.4786C61.6945 27.9915 62.1496 27.6534 62.6313 27.7548C66.3417 28.5361 69.68 30.6156 72.0617 33.6499C74.63 36.922 75.8975 41.0643 75.612 45.2522C75.3264 49.4401 73.5088 53.3662 70.5208 56.2489C67.5329 59.1316 63.594 60.7594 59.4883 60.8081C55.3827 60.8569 51.4114 59.323 48.3654 56.5119C45.3194 53.7008 43.422 49.8188 43.051 45.6387C42.68 41.4586 43.8627 37.2872 46.3636 33.955C48.6824 30.8653 51.9767 28.7073 55.6696 27.8379C56.1496 27.7248 56.6131 28.0535 56.695 28.5398C56.7759 29.0203 56.4534 29.4734 55.9798 29.5877C52.7115 30.3765 49.7976 32.2963 47.7418 35.0355C45.5071 38.0131 44.4502 41.7408 44.7817 45.4761C45.1132 49.2114 46.8087 52.6805 49.5307 55.1925C52.2526 57.7045 55.8013 59.0751 59.4702 59.0316C63.139 58.988 66.6589 57.5335 69.3289 54.9575C71.9989 52.3814 73.6232 48.873 73.8784 45.1307C74.1336 41.3884 73.0009 37.6868 70.7059 34.7629C68.5954 32.0742 65.6445 30.2244 62.3624 29.5128C61.8849 29.4093 61.5514 28.9619 61.6227 28.4786Z" fill="black"/>
<rect x="55.8823" y="61.1236" width="7.11053" height="1.58012" stroke="black" stroke-width="1.58012"/>
<path d="M59.4671 78.3752C59.4515 78.3752 59.4449 78.3726 59.4413 78.3709C59.4354 78.3683 59.4272 78.363 59.4189 78.3541C59.4107 78.3451 59.4062 78.3364 59.404 78.3304C59.4027 78.3266 59.4006 78.3198 59.4019 78.3043L59.4764 77.4354L59.5324 78.3056C59.5334 78.3207 59.5312 78.3275 59.5298 78.3314C59.5275 78.3375 59.5229 78.3459 59.5148 78.3546C59.5067 78.3632 59.4986 78.3684 59.4927 78.371C59.4888 78.3727 59.4822 78.3752 59.4671 78.3752Z" stroke="black" stroke-width="5"/>
</svg>
