<svg width="227" height="53" viewBox="0 0 227 53" fill="none" xmlns="http://www.w3.org/2000/svg">
<path d="M49.4968 6.4594C38.7881 8.28888 29.7492 10.5465 22.7471 13.1046C15.5107 15.7483 10.3696 18.7409 7.84909 21.9804C6.57743 23.6148 5.97783 25.3063 6.10002 27.0202C6.22181 28.7285 7.0554 30.3843 8.50531 31.9636C11.3905 35.1063 16.8233 38.0639 24.5553 40.7038C40.045 45.9924 63.8418 49.6864 90.9264 51.0251C118.018 52.3641 146.325 51.2439 169.894 47.8976C181.679 46.2245 191.83 44.0587 199.896 41.5367C207.947 39.0192 213.975 36.1308 217.463 32.9829C219.212 31.4047 220.322 29.7629 220.735 28.0726C221.151 26.3682 220.845 24.6724 219.873 23.0325C217.953 19.7958 213.417 16.7394 206.538 13.9789C192.739 8.44137 170.158 4.36347 143.568 2.58062C130.251 1.68777 110.91 2.14183 94.617 2.81724C86.4669 3.1551 79.0735 3.54863 73.5692 3.85767C71.7603 3.95923 70.159 4.05142 68.8033 4.12947C66.02 4.28971 64.2713 4.39039 63.8833 4.39039C63.2812 4.3904 62.8523 4.39019 62.5253 4.37044C62.1955 4.35052 62.0227 4.31261 61.9145 4.26528C61.7781 4.20565 61.6916 4.11714 61.503 3.77103C61.8646 3.68847 62.4234 3.59945 63.1721 3.50673C64.7082 3.31652 66.9797 3.11825 69.823 2.92312C75.5066 2.53306 83.446 2.15744 92.2906 1.88255C109.984 1.33264 131.272 1.18678 145.35 2.13077C173.542 4.02099 197.386 8.3411 211.884 14.1591C219.154 17.0764 223.684 20.2157 225.537 23.3395C226.451 24.8798 226.708 26.4055 226.338 27.9195C225.964 29.4477 224.938 31.0214 223.176 32.6116C219.642 35.8003 213.418 38.8131 204.909 41.4736C196.415 44.1296 185.696 46.4186 173.222 48.1896C148.275 51.7316 118.291 52.9194 89.5871 51.5007C60.876 50.0817 35.7229 46.1672 19.4105 40.5978C11.2415 37.8087 5.68012 34.7366 2.79842 31.5977C1.36489 30.0363 0.62185 28.4884 0.513857 26.9737C0.406262 25.4645 0.923724 23.9136 2.156 22.3298C2.74242 21.5761 3.8177 20.7354 5.31168 19.8399C6.79514 18.9506 8.65025 18.0311 10.7553 17.1074C14.9647 15.2603 20.1374 13.412 25.2559 11.7675C30.3727 10.1234 35.4255 8.68612 39.3908 7.66021C41.3738 7.1472 43.0818 6.73783 44.3881 6.45711C45.719 6.17111 46.5777 6.03154 46.901 6.03154C48.1494 6.03154 48.9726 6.23833 49.4968 6.4594ZM61.1451 3.87802C61.1451 3.87795 61.1468 3.87691 61.1506 3.875C61.1471 3.87713 61.1451 3.87811 61.1451 3.87802Z" fill="#C37935" stroke="#C37935"/>
</svg>
