<svg width="71" height="85" viewBox="0 0 71 85" fill="none" xmlns="http://www.w3.org/2000/svg">
<path d="M11.6071 49.2087L10.2591 49.8668L11.6071 49.2087ZM70.4152 71.8992C71.0046 72.4814 71.0104 73.4311 70.4282 74.0205L60.9407 83.6245C60.3585 84.2139 59.4088 84.2197 58.8194 83.6375C58.2301 83.0553 58.2243 82.1055 58.8065 81.5162L67.2398 72.9793L58.7029 64.5459C58.1135 63.9637 58.1077 63.014 58.6899 62.4247C59.2721 61.8353 60.2219 61.8295 60.8112 62.4117L70.4152 71.8992ZM1.00538 0.544172C15.0676 4.03443 22.0967 12.7869 25.6591 21.8927C29.1783 30.8884 29.3303 40.3035 29.7329 45.0856L26.7434 45.3372C26.3197 40.3033 26.1826 31.4653 22.8652 22.9857C19.591 14.6162 13.2362 6.6709 0.282705 3.45583L1.00538 0.544172ZM29.5895 45.8624C26.7859 51.6822 22.8427 54.3906 18.9686 54.6938C15.1671 54.9913 11.7486 52.9174 10.2591 49.8668L12.955 48.5506C13.9001 50.4864 16.1517 51.9051 18.7345 51.703C21.2446 51.5065 24.3997 49.7231 26.8868 44.5604L29.5895 45.8624ZM10.2591 49.8668C9.23447 47.7681 8.79135 45.5107 9.0356 43.4802C9.28109 41.4393 10.2451 39.5353 12.1045 38.4379C13.9509 37.3482 16.3756 37.2342 19.1826 38.1081C21.9884 38.9816 25.32 40.8788 29.1893 44.0515L27.2871 46.3713C23.5884 43.3385 20.5972 41.6906 18.2908 40.9725C15.9855 40.2548 14.5085 40.5027 13.6292 41.0216C12.7629 41.5328 12.177 42.4842 12.0141 43.8385C11.85 45.2032 12.1398 46.881 12.955 48.5506L10.2591 49.8668ZM28.2382 45.2114C29.6323 44.6578 29.6322 44.6577 29.6323 44.6577C29.6323 44.6578 29.6323 44.6579 29.6324 44.658C29.6325 44.6583 29.6327 44.6589 29.633 44.6596C29.6336 44.661 29.6345 44.6633 29.6357 44.6665C29.6382 44.6728 29.6421 44.6825 29.6473 44.6954C29.6576 44.7213 29.6733 44.7604 29.694 44.8119C29.7355 44.915 29.7974 45.068 29.8782 45.2657C30.0398 45.6612 30.2769 46.2354 30.5775 46.9466C31.1789 48.3695 32.0333 50.3378 33.0447 52.5186C35.0825 56.9122 37.7055 62.0525 40.1503 65.3663L37.7362 67.1474C35.0964 63.5694 32.3668 58.187 30.3232 53.7808C29.294 51.5616 28.4255 49.5608 27.8142 48.1146C27.5084 47.3912 27.2667 46.8058 27.101 46.4003C27.0182 46.1976 26.9544 46.0398 26.911 45.9322C26.8894 45.8784 26.8728 45.8371 26.8616 45.809C26.856 45.795 26.8517 45.7842 26.8488 45.7769C26.8473 45.7732 26.8462 45.7703 26.8454 45.7684C26.845 45.7674 26.8447 45.7666 26.8445 45.766C26.8444 45.7658 26.8443 45.7655 26.8442 45.7654C26.8441 45.7652 26.8441 45.765 28.2382 45.2114ZM40.1503 65.3663C41.1959 66.7836 42.8889 67.9301 45.1272 68.8284C47.357 69.7233 50.0221 70.3294 52.8747 70.7314C58.5857 71.5364 64.8092 71.4941 69.3519 71.4664L69.3702 74.4663C64.8635 74.4938 58.4204 74.5427 52.456 73.7021C49.4708 73.2813 46.5461 72.6304 44.0098 71.6126C41.482 70.5981 39.2328 69.176 37.7362 67.1474L40.1503 65.3663Z" fill="#C37935"/>
</svg>
