<svg width="119" height="115" viewBox="0 0 119 115" fill="none" xmlns="http://www.w3.org/2000/svg">
<rect x="40.4932" y="108.521" width="32.3945" height="6.47889" fill="#D9D9D9"/>
<path fill-rule="evenodd" clip-rule="evenodd" d="M72.0778 106.092H40.4932L30.7749 83.4161C38.0637 68.8386 49.4017 41.3033 50.2116 37.254H62.3595C63.9792 42.1132 77.7468 79.3668 81.7962 82.6063C80.5004 85.8457 74.7774 99.6133 72.0778 106.092ZM55.0708 37.2541H58.3103V76.4042C60.1975 77.0713 61.5495 78.8711 61.5495 80.9868C61.5495 83.6704 59.374 85.846 56.6904 85.846C54.0067 85.846 51.8312 83.6704 51.8312 80.9868C51.8312 78.871 53.1834 77.0711 55.0708 76.4041V37.2541Z" fill="#D9D9D9"/>
<path d="M7.28857 51.8312C8.9083 42.9227 16.359 23.0001 33.2041 14.5776C50.0493 6.15501 68.838 9.44845 76.1268 12.148C77.5191 12.7136 79.1611 13.5219 80.9524 14.5776C90.2748 20.0717 103.641 32.2665 106.902 51.8312L100.423 51.8312C102.042 42.9227 89.7292 21.0565 69.6479 15.3874L80.9524 14.5776C79.1611 13.5219 77.5191 12.7136 76.1268 12.148C68.838 9.44845 50.0493 6.15501 33.2041 14.5776L46.9718 15.3874C25.9154 22.6762 14.5773 42.9227 12.9576 51.8312L7.28857 51.8312Z" fill="#D9D9D9"/>
<rect y="51.8312" width="19.4367" height="19.4367" rx="2" fill="#D9D9D9"/>
<rect x="95.5635" y="51.8312" width="19.4367" height="19.4367" rx="2" fill="#D9D9D9"/>
<rect x="46.9719" width="22.6761" height="22.6761" rx="2" fill="#D9D9D9"/>
<circle cx="9.71834" cy="11.338" r="9.71834" fill="#D9D9D9"/>
<circle cx="105.282" cy="11.338" r="9.71834" fill="#D9D9D9"/>
<rect x="9.71851" y="8.09875" width="97.1833" height="6.47889" fill="#D9D9D9"/>
<rect x="44.2104" y="108.521" width="32.3945" height="6.47889" fill="black"/>
<path fill-rule="evenodd" clip-rule="evenodd" d="M75.7949 106.092H44.2103L34.4919 83.4161C41.7807 68.8386 53.1188 41.3033 53.9286 37.254H66.0765C67.6963 42.1132 81.4639 79.3668 85.5132 82.6063C84.2174 85.8457 78.4944 99.6133 75.7949 106.092ZM58.7879 37.2541H62.0274V76.4042C63.9146 77.0713 65.2667 78.8711 65.2667 80.9868C65.2667 83.6704 63.0911 85.846 60.4075 85.846C57.7238 85.846 55.5483 83.6704 55.5483 80.9868C55.5483 78.871 56.9006 77.0711 58.7879 76.4041V37.2541Z" fill="black"/>
<path d="M11.0059 51.8312C12.6256 42.9227 20.0763 23.0001 36.9214 14.5776C53.7665 6.15501 72.5553 9.44845 79.8441 12.148C81.2364 12.7136 82.8784 13.5219 84.6697 14.5776C93.9921 20.0717 107.358 32.2665 110.619 51.8312L104.14 51.8312C105.76 42.9227 93.4465 21.0565 73.3652 15.3874L84.6697 14.5776C82.8784 13.5219 81.2364 12.7136 79.8441 12.148C72.5553 9.44845 53.7665 6.15501 36.9214 14.5776L50.6891 15.3874C29.6327 22.6762 18.2946 42.9227 16.6749 51.8312L11.0059 51.8312Z" fill="black"/>
<path d="M36.9214 14.5776C20.0763 23.0001 12.6256 42.9227 11.0059 51.8312L16.6749 51.8312C18.2946 42.9227 29.6327 22.6762 50.6891 15.3874L36.9214 14.5776ZM36.9214 14.5776C53.7665 6.15501 72.5553 9.44845 79.8441 12.148C81.2364 12.7136 82.8784 13.5219 84.6697 14.5776M84.6697 14.5776C93.9921 20.0717 107.358 32.2665 110.619 51.8312L104.14 51.8312C105.76 42.9227 93.4465 21.0565 73.3652 15.3874L84.6697 14.5776Z" stroke="black"/>
<rect x="3.71704" y="51.8312" width="19.4367" height="19.4367" rx="2" fill="black"/>
<rect x="99.2805" y="51.8312" width="19.4367" height="19.4367" rx="2" fill="black"/>
<rect x="50.689" width="22.6761" height="22.6761" rx="2" fill="black"/>
<circle cx="13.4354" cy="11.338" r="9.71834" fill="black"/>
<circle cx="108.999" cy="11.338" r="9.71834" fill="black"/>
<rect x="13.4355" y="8.09875" width="97.1833" height="6.47889" fill="black"/>
</svg>
