<svg width="227" height="53" viewBox="0 0 227 53" fill="none" xmlns="http://www.w3.org/2000/svg">
<path d="M30.81 21.45C30.81 21.138 30.8273 20.9387 30.862 20.852C30.914 20.748 31.0353 20.696 31.226 20.696C31.4167 20.696 31.6507 20.8867 31.928 21.268C32.2227 21.6493 32.37 22.1433 32.37 22.75C32.37 23.3567 31.9887 25.0987 31.226 27.976C30.4807 30.8533 30.108 32.7947 30.108 33.8C30.108 34.8053 30.3247 35.6373 30.758 36.296C31.1913 36.9547 31.7373 37.284 32.396 37.284C33.072 37.284 33.774 36.946 34.502 36.27C35.2473 35.5767 35.9407 34.6753 36.582 33.566C37.2407 32.4393 37.7867 31.07 38.22 29.458C38.6533 27.8287 38.87 26.1733 38.87 24.492C38.87 23.9027 38.8353 23.244 38.766 22.516C38.714 21.7707 38.688 21.3113 38.688 21.138C38.688 20.9473 38.714 20.826 38.766 20.774C38.818 20.722 38.9133 20.696 39.052 20.696C39.364 20.696 39.6847 20.9127 40.014 21.346C40.3433 21.762 40.508 22.3773 40.508 23.192C40.508 27.7333 39.676 31.46 38.012 34.372C36.348 37.284 34.4413 38.74 32.292 38.74C31.2173 38.74 30.3247 38.272 29.614 37.336C28.9207 36.4 28.574 35.2993 28.574 34.034C28.574 32.7687 28.9467 30.6713 29.692 27.742C30.4373 24.7953 30.81 22.698 30.81 21.45ZM57.0345 20.696C57.1731 20.696 57.3638 20.8173 57.6065 21.06C57.8491 21.2853 57.9705 21.45 57.9705 21.554C57.9705 21.6407 57.9531 21.71 57.9185 21.762C57.9011 21.814 57.8491 21.8833 57.7625 21.97C57.6758 22.0393 57.5978 22.1 57.5285 22.152C56.9738 22.5507 56.5578 22.8973 56.2805 23.192C56.0031 23.4867 55.6478 23.9027 55.2145 24.44C54.7985 24.96 54.4171 25.4367 54.0705 25.87C53.7411 26.286 53.2211 26.9533 52.5105 27.872C51.3318 29.38 50.7338 30.1427 50.7165 30.16C51.2365 30.9573 51.9558 32.0233 52.8745 33.358C53.8105 34.6753 54.4951 35.6807 54.9285 36.374C55.3618 37.0673 55.5785 37.5787 55.5785 37.908C55.5785 38.2373 55.4658 38.402 55.2405 38.402C54.8418 38.402 54.0965 37.726 53.0045 36.374C51.9125 35.022 50.7858 33.4013 49.6245 31.512C46.9205 34.9093 45.2911 36.9113 44.7365 37.518C44.1818 38.1073 43.6965 38.402 43.2805 38.402C43.1418 38.402 42.9858 38.3327 42.8125 38.194C42.6565 38.038 42.5785 37.9167 42.5785 37.83C42.5785 37.726 42.5958 37.6393 42.6305 37.57C42.6651 37.5007 42.6998 37.4487 42.7345 37.414C42.7691 37.362 42.9251 37.1973 43.2025 36.92C44.4678 35.62 46.3485 33.384 48.8445 30.212C46.4871 26.156 45.3085 23.14 45.3085 21.164C45.3085 20.852 45.4125 20.696 45.6205 20.696C46.0018 20.696 46.3485 20.8087 46.6605 21.034C46.9898 21.2593 47.1545 21.5193 47.1545 21.814C47.1545 23.53 48.0645 25.8787 49.8845 28.86C52.7791 25.0813 54.5991 22.776 55.3445 21.944C56.0898 21.112 56.6531 20.696 57.0345 20.696ZM64.0423 31.512C62.1876 35.9493 61.0523 38.6273 60.6363 39.546C60.2203 40.482 59.9429 40.95 59.8043 40.95C59.6656 40.95 59.4923 40.8287 59.2843 40.586C59.0936 40.3433 58.9983 40.1527 58.9983 40.014C58.9983 39.0953 61.8063 32.396 67.4223 19.916C67.4916 19.7773 67.5436 19.6647 67.5783 19.578C67.6129 19.4913 67.6389 19.4307 67.6563 19.396C67.6909 19.344 67.7169 19.3093 67.7343 19.292C67.7516 19.2573 67.7689 19.2313 67.7863 19.214C67.8556 19.1793 67.9163 19.162 67.9683 19.162C68.1069 19.162 68.2976 19.344 68.5403 19.708C68.7829 20.0547 68.9043 20.3927 68.9043 20.722C68.9043 21.0513 68.6269 21.8053 68.0723 22.984C67.5349 24.1627 66.8329 25.6187 65.9663 27.352C65.1169 29.0853 64.4756 30.472 64.0423 31.512ZM73.3139 21.45C73.3139 21.138 73.3312 20.9387 73.3659 20.852C73.4179 20.748 73.5392 20.696 73.7299 20.696C73.9206 20.696 74.1546 20.8867 74.4319 21.268C74.7266 21.6493 74.8739 22.1433 74.8739 22.75C74.8739 23.3567 74.4926 25.0987 73.7299 27.976C72.9846 30.8533 72.6119 32.7947 72.6119 33.8C72.6119 34.8053 72.8286 35.6373 73.2619 36.296C73.6952 36.9547 74.2412 37.284 74.8999 37.284C75.5759 37.284 76.2779 36.946 77.0059 36.27C77.7512 35.5767 78.4446 34.6753 79.0859 33.566C79.7446 32.4393 80.2906 31.07 80.7239 29.458C81.1572 27.8287 81.3739 26.1733 81.3739 24.492C81.3739 23.9027 81.3392 23.244 81.2699 22.516C81.2179 21.7707 81.1919 21.3113 81.1919 21.138C81.1919 20.9473 81.2179 20.826 81.2699 20.774C81.3219 20.722 81.4172 20.696 81.5559 20.696C81.8679 20.696 82.1886 20.9127 82.5179 21.346C82.8472 21.762 83.0119 22.3773 83.0119 23.192C83.0119 27.7333 82.1799 31.46 80.5159 34.372C78.8519 37.284 76.9452 38.74 74.7959 38.74C73.7212 38.74 72.8286 38.272 72.1179 37.336C71.4246 36.4 71.0779 35.2993 71.0779 34.034C71.0779 32.7687 71.4506 30.6713 72.1959 27.742C72.9412 24.7953 73.3139 22.698 73.3139 21.45ZM86.9544 38.428C86.781 38.428 86.5904 38.3067 86.3824 38.064C86.1744 37.804 86.0704 37.492 86.0704 37.128C86.0704 36.764 86.6337 34.3373 87.7604 29.848C88.9044 25.3587 89.4764 22.5593 89.4764 21.45C89.4764 21.138 89.4937 20.9387 89.5284 20.852C89.5804 20.748 89.7104 20.696 89.9184 20.696C90.1264 20.696 90.3517 20.8867 90.5944 21.268C90.8544 21.6493 90.9844 22.0567 90.9844 22.49C90.9844 23.6513 90.343 26.5893 89.0604 31.304C88.9217 31.7893 88.7484 32.448 88.5404 33.28C88.3324 34.0947 88.159 34.7533 88.0204 35.256C87.8817 35.7587 87.7344 36.2787 87.5784 36.816C87.2664 37.8907 87.0584 38.428 86.9544 38.428ZM107.305 20.618C108.813 20.618 110.416 21.034 112.115 21.866C113.831 22.6807 115.295 23.816 116.509 25.272C117.739 26.7107 118.355 28.2013 118.355 29.744C118.355 30.836 117.653 32.0927 116.249 33.514C114.845 34.9353 113.215 36.14 111.361 37.128C109.506 38.116 107.955 38.61 106.707 38.61C106.36 38.61 106.031 38.3847 105.719 37.934C105.424 37.4833 105.277 36.9633 105.277 36.374C105.277 35.7847 105.779 33.6527 106.785 29.978C107.79 26.286 108.293 23.9287 108.293 22.906C108.293 22.594 108.301 22.3947 108.319 22.308C107.816 22.1693 107.435 21.9873 107.175 21.762C106.915 21.5367 106.785 21.3113 106.785 21.086C106.785 20.774 106.958 20.618 107.305 20.618ZM116.691 29.692C116.691 28.3053 115.954 26.8927 114.481 25.454C113.025 24.0153 111.343 23.0447 109.437 22.542C109.662 22.906 109.775 23.2873 109.775 23.686C109.775 24.0847 109.757 24.3967 109.723 24.622C109.705 24.83 109.662 25.0987 109.593 25.428C109.523 25.74 109.454 26.0433 109.385 26.338C109.315 26.6153 109.211 27.0053 109.073 27.508C108.934 28.0107 108.813 28.4613 108.709 28.86C108.605 29.2413 108.449 29.7873 108.241 30.498C108.05 31.2087 107.885 31.824 107.747 32.344C107.331 33.748 107.027 35.2993 106.837 36.998C107.79 36.9633 108.865 36.6513 110.061 36.062C111.274 35.4727 112.349 34.788 113.285 34.008C114.238 33.228 115.044 32.4393 115.703 31.642C116.361 30.8273 116.691 30.1773 116.691 29.692ZM129.842 30.056C129.842 30.9573 129.382 31.6767 128.464 32.214C127.545 32.734 126.488 32.994 125.292 32.994C124.096 32.994 122.839 32.8293 121.522 32.5C121.244 33.384 121.106 34.1727 121.106 34.866C121.106 35.5593 121.348 36.1053 121.834 36.504C122.319 36.8853 122.96 37.076 123.758 37.076C124.555 37.076 125.404 36.9113 126.306 36.582C127.207 36.2527 127.718 36.088 127.84 36.088C128.152 36.088 128.308 36.2267 128.308 36.504C128.308 36.8507 127.796 37.284 126.774 37.804C125.751 38.3067 124.815 38.558 123.966 38.558C122.77 38.558 121.747 38.1853 120.898 37.44C120.066 36.6773 119.65 35.698 119.65 34.502C119.65 33.2887 119.962 32.0147 120.586 30.68C121.21 29.3453 122.024 28.2273 123.03 27.326C124.035 26.4073 125.023 25.948 125.994 25.948C126.982 25.948 127.866 26.4073 128.646 27.326C129.443 28.2273 129.842 29.1373 129.842 30.056ZM126.202 27.404C125.422 27.404 124.642 27.7853 123.862 28.548C123.099 29.3107 122.466 30.264 121.964 31.408C122.969 31.6507 123.966 31.772 124.954 31.772C125.959 31.772 126.774 31.6073 127.398 31.278C128.039 30.9313 128.36 30.4893 128.36 29.952C128.36 29.3973 128.126 28.834 127.658 28.262C127.19 27.69 126.704 27.404 126.202 27.404ZM138.258 25.948C138.813 25.948 139.316 26.2427 139.766 26.832C140.234 27.404 140.468 27.8547 140.468 28.184C140.468 28.496 140.364 28.652 140.156 28.652C139.948 28.652 139.645 28.4613 139.246 28.08C138.848 27.6987 138.432 27.508 137.998 27.508C137.565 27.508 136.88 27.8113 135.944 28.418C135.008 29.0073 134.54 29.5967 134.54 30.186C134.54 30.602 135.121 31.1827 136.282 31.928C136.768 32.24 137.253 32.578 137.738 32.942C138.9 33.8087 139.48 34.658 139.48 35.49C139.48 36.322 139.038 37.0413 138.154 37.648C137.27 38.2547 136.239 38.558 135.06 38.558C133.882 38.558 132.824 38.2633 131.888 37.674C130.97 37.0847 130.51 36.556 130.51 36.088C130.51 35.932 130.554 35.802 130.64 35.698C130.744 35.594 130.857 35.542 130.978 35.542C131.117 35.542 131.342 35.672 131.654 35.932C132.642 36.6947 133.665 37.076 134.722 37.076C136.768 37.076 137.79 36.5387 137.79 35.464C137.79 34.996 137.53 34.5367 137.01 34.086C136.508 33.618 135.953 33.2193 135.346 32.89C134.74 32.5607 134.176 32.1447 133.656 31.642C133.154 31.1393 132.902 30.628 132.902 30.108C132.902 29.2067 133.552 28.288 134.852 27.352C136.17 26.416 137.305 25.948 138.258 25.948ZM145.572 22.022C145.572 21.7273 145.667 21.4673 145.858 21.242C146.066 21.0167 146.291 20.904 146.534 20.904C146.777 20.904 147.054 21.1987 147.366 21.788C147.678 22.3773 147.834 22.802 147.834 23.062C147.834 23.4953 147.687 23.712 147.392 23.712C147.028 23.712 146.629 23.504 146.196 23.088C145.78 22.672 145.572 22.3167 145.572 22.022ZM144.454 27.118C144.575 26.6847 144.688 26.3813 144.792 26.208C144.913 26.0347 145.052 25.948 145.208 25.948C145.364 25.948 145.537 26.0693 145.728 26.312C145.919 26.5373 146.014 26.7627 146.014 26.988C146.014 28.1493 145.13 31.5207 143.362 37.102C143.033 38.0727 142.695 38.558 142.348 38.558C142.175 38.558 142.027 38.4887 141.906 38.35C141.785 38.194 141.724 38.012 141.724 37.804C141.724 37.5787 141.802 37.18 141.958 36.608C142.131 36.0187 142.348 35.282 142.608 34.398C142.868 33.4967 143.067 32.76 143.206 32.188C143.362 31.5987 143.527 30.9227 143.7 30.16C143.891 29.38 144.029 28.782 144.116 28.366C144.22 27.95 144.333 27.534 144.454 27.118ZM157.755 31.486C157.755 32.2313 157.383 33.124 156.637 34.164C156.048 35.4813 155.346 37.5787 154.531 40.456C154.306 41.288 154.037 42.094 153.725 42.874C153.101 44.4513 152.139 45.24 150.839 45.24C149.557 45.24 148.508 44.928 147.693 44.304C146.896 43.6973 146.497 43.056 146.497 42.38C146.497 42.224 146.549 42.0507 146.653 41.86C146.757 41.6693 146.879 41.574 147.017 41.574C147.156 41.574 147.329 41.6953 147.537 41.938C147.763 42.198 147.971 42.4753 148.161 42.77C148.369 43.0647 148.699 43.3333 149.149 43.576C149.6 43.836 150.051 43.966 150.501 43.966C150.952 43.966 151.299 43.8707 151.541 43.68C151.801 43.4893 152.018 43.2467 152.191 42.952C152.365 42.6747 152.538 42.276 152.711 41.756C152.902 41.2533 153.058 40.7767 153.179 40.326C153.613 38.714 153.951 37.518 154.193 36.738C152.72 37.9513 151.472 38.558 150.449 38.558C149.652 38.558 148.95 38.2547 148.343 37.648C147.754 37.024 147.459 36.3307 147.459 35.568C147.459 34.4413 147.823 33.124 148.551 31.616C149.279 30.108 150.215 28.7907 151.359 27.664C152.503 26.52 153.561 25.948 154.531 25.948C155.519 25.948 156.256 26.416 156.741 27.352C157.244 28.288 157.495 29.276 157.495 30.316V30.576C157.669 30.8013 157.755 31.1047 157.755 31.486ZM150.371 37.024C151.429 37.024 152.547 36.478 153.725 35.386C154.921 34.294 155.84 32.8987 156.481 31.2C156.36 30.992 156.256 30.6627 156.169 30.212C155.961 28.8253 155.675 27.9847 155.311 27.69C155.155 27.5513 154.956 27.482 154.713 27.482C153.968 27.482 153.136 27.9847 152.217 28.99C151.299 29.9953 150.527 31.148 149.903 32.448C149.279 33.7307 148.967 34.8053 148.967 35.672C148.967 36.0707 149.106 36.4 149.383 36.66C149.661 36.9027 149.99 37.024 150.371 37.024ZM169.057 25.948C169.508 25.948 170.002 26.286 170.539 26.962C171.094 27.6207 171.371 28.314 171.371 29.042C171.371 30.134 171.085 31.5467 170.513 33.28C169.959 34.996 169.465 36.3047 169.031 37.206C168.615 38.1073 168.225 38.558 167.861 38.558C167.584 38.558 167.445 38.4107 167.445 38.116C167.445 37.8213 167.515 37.4487 167.653 36.998C167.809 36.53 168.035 35.8973 168.329 35.1C169.352 32.3787 169.863 30.394 169.863 29.146C169.863 28.7473 169.742 28.4093 169.499 28.132C169.274 27.8373 169.075 27.69 168.901 27.69C168.745 27.69 168.598 27.7247 168.459 27.794C168.321 27.846 168.165 27.9413 167.991 28.08C167.835 28.2187 167.679 28.366 167.523 28.522C167.385 28.6607 167.203 28.8687 166.977 29.146C166.769 29.4233 166.587 29.6747 166.431 29.9C166.275 30.108 166.059 30.4113 165.781 30.81C165.521 31.1913 165.305 31.512 165.131 31.772C164.438 32.864 163.918 33.67 163.571 34.19C163.225 34.6927 162.8 35.3513 162.297 36.166C161.309 37.7607 160.755 38.558 160.633 38.558C160.443 38.558 160.235 38.4367 160.009 38.194C159.801 37.934 159.697 37.7173 159.697 37.544C159.697 37.3707 159.767 37.0587 159.905 36.608C160.477 34.7707 160.841 33.4967 160.997 32.786C161.517 30.5673 161.777 28.6867 161.777 27.144C161.777 26.3293 161.933 25.922 162.245 25.922C162.488 25.922 162.731 26.0867 162.973 26.416C163.216 26.728 163.337 27.1527 163.337 27.69C163.337 28.2273 163.147 29.3193 162.765 30.966C162.401 32.6127 161.994 34.0513 161.543 35.282C163.554 31.8327 165.114 29.4147 166.223 28.028C167.333 26.6413 168.277 25.948 169.057 25.948ZM183.162 30.056C183.162 30.9573 182.703 31.6767 181.784 32.214C180.865 32.734 179.808 32.994 178.612 32.994C177.416 32.994 176.159 32.8293 174.842 32.5C174.565 33.384 174.426 34.1727 174.426 34.866C174.426 35.5593 174.669 36.1053 175.154 36.504C175.639 36.8853 176.281 37.076 177.078 37.076C177.875 37.076 178.725 36.9113 179.626 36.582C180.527 36.2527 181.039 36.088 181.16 36.088C181.472 36.088 181.628 36.2267 181.628 36.504C181.628 36.8507 181.117 37.284 180.094 37.804C179.071 38.3067 178.135 38.558 177.286 38.558C176.09 38.558 175.067 38.1853 174.218 37.44C173.386 36.6773 172.97 35.698 172.97 34.502C172.97 33.2887 173.282 32.0147 173.906 30.68C174.53 29.3453 175.345 28.2273 176.35 27.326C177.355 26.4073 178.343 25.948 179.314 25.948C180.302 25.948 181.186 26.4073 181.966 27.326C182.763 28.2273 183.162 29.1373 183.162 30.056ZM179.522 27.404C178.742 27.404 177.962 27.7853 177.182 28.548C176.419 29.3107 175.787 30.264 175.284 31.408C176.289 31.6507 177.286 31.772 178.274 31.772C179.279 31.772 180.094 31.6073 180.718 31.278C181.359 30.9313 181.68 30.4893 181.68 29.952C181.68 29.3973 181.446 28.834 180.978 28.262C180.51 27.69 180.025 27.404 179.522 27.404ZM186.249 28.47L186.197 27.066C186.197 26.4767 186.24 26.1473 186.327 26.078C186.413 25.9913 186.5 25.948 186.587 25.948C186.829 25.948 187.072 26.13 187.315 26.494C187.557 26.858 187.679 27.248 187.679 27.664C187.679 28.7733 187.583 29.8827 187.393 30.992C187.913 29.9 188.467 28.964 189.057 28.184C189.646 27.3867 190.192 26.832 190.695 26.52C191.197 26.208 191.648 26.052 192.047 26.052C192.809 26.052 193.191 26.208 193.191 26.52C193.191 26.7453 192.922 26.9707 192.385 27.196C191.362 27.5947 190.539 28.2187 189.915 29.068C189.291 29.9 188.675 30.9833 188.069 32.318C187.462 33.6353 186.994 34.814 186.665 35.854C186.353 36.894 186.119 37.622 185.963 38.038C185.807 38.454 185.607 38.662 185.365 38.662C185.174 38.662 185.009 38.5407 184.871 38.298C184.732 38.0553 184.663 37.8213 184.663 37.596C184.663 37.3533 184.715 37.0413 184.819 36.66C185.304 35.0653 185.659 33.7047 185.885 32.578C186.127 31.434 186.249 30.0647 186.249 28.47Z" fill="black"/>
<path d="M49.4968 6.4594C38.7881 8.28888 29.7492 10.5465 22.7471 13.1046C15.5107 15.7483 10.3696 18.7409 7.84909 21.9804C6.57743 23.6148 5.97783 25.3063 6.10002 27.0202C6.22181 28.7285 7.0554 30.3843 8.50531 31.9636C11.3905 35.1063 16.8233 38.0639 24.5553 40.7038C40.045 45.9924 63.8418 49.6864 90.9264 51.0251C118.018 52.3641 146.325 51.2439 169.894 47.8976C181.679 46.2245 191.83 44.0587 199.896 41.5367C207.947 39.0192 213.975 36.1308 217.463 32.9829C219.212 31.4047 220.322 29.7629 220.735 28.0726C221.151 26.3682 220.845 24.6724 219.873 23.0325C217.953 19.7958 213.417 16.7394 206.538 13.9789C192.739 8.44137 170.158 4.36347 143.568 2.58062C130.251 1.68777 110.91 2.14183 94.617 2.81724C86.4669 3.1551 79.0735 3.54863 73.5692 3.85767C71.7603 3.95923 70.159 4.05142 68.8033 4.12947C66.02 4.28971 64.2713 4.39039 63.8833 4.39039C63.2812 4.3904 62.8523 4.39019 62.5253 4.37044C62.1955 4.35052 62.0227 4.31261 61.9145 4.26528C61.7781 4.20565 61.6916 4.11714 61.503 3.77103C61.8646 3.68847 62.4234 3.59945 63.1721 3.50673C64.7082 3.31652 66.9797 3.11825 69.823 2.92312C75.5066 2.53306 83.446 2.15744 92.2906 1.88255C109.984 1.33264 131.272 1.18678 145.35 2.13077C173.542 4.02099 197.386 8.3411 211.884 14.1591C219.154 17.0764 223.684 20.2157 225.537 23.3395C226.451 24.8798 226.708 26.4055 226.338 27.9195C225.964 29.4477 224.938 31.0214 223.176 32.6116C219.642 35.8003 213.418 38.8131 204.909 41.4736C196.415 44.1296 185.696 46.4186 173.222 48.1896C148.275 51.7316 118.291 52.9194 89.5871 51.5007C60.876 50.0817 35.7229 46.1672 19.4105 40.5978C11.2415 37.8087 5.68012 34.7366 2.79842 31.5977C1.36489 30.0363 0.62185 28.4884 0.513857 26.9737C0.406262 25.4645 0.923724 23.9136 2.156 22.3298C2.74242 21.5761 3.8177 20.7354 5.31168 19.8399C6.79514 18.9506 8.65025 18.0311 10.7553 17.1074C14.9647 15.2603 20.1374 13.412 25.2559 11.7675C30.3727 10.1234 35.4255 8.68612 39.3908 7.66021C41.3738 7.1472 43.0818 6.73783 44.3881 6.45711C45.719 6.17111 46.5777 6.03154 46.901 6.03154C48.1494 6.03154 48.9726 6.23833 49.4968 6.4594ZM61.1451 3.87802C61.1451 3.87795 61.1468 3.87691 61.1506 3.875C61.1471 3.87713 61.1451 3.87811 61.1451 3.87802Z" fill="#C37935" stroke="#C37935"/>
</svg>
