<svg width="227" height="53" viewBox="0 0 227 53" fill="none" xmlns="http://www.w3.org/2000/svg">
<path d="M30.81 20.5042C30.81 20.1922 30.8273 19.9929 30.862 19.9062C30.914 19.8022 31.0353 19.7502 31.226 19.7502C31.4167 19.7502 31.6507 19.9409 31.928 20.3222C32.2227 20.7035 32.37 21.1975 32.37 21.8042C32.37 22.4109 31.9887 24.1529 31.226 27.0302C30.4807 29.9075 30.108 31.8489 30.108 32.8542C30.108 33.8595 30.3247 34.6915 30.758 35.3502C31.1913 36.0089 31.7373 36.3382 32.396 36.3382C33.072 36.3382 33.774 36.0002 34.502 35.3242C35.2473 34.6309 35.9407 33.7295 36.582 32.6202C37.2407 31.4935 37.7867 30.1242 38.22 28.5122C38.6533 26.8829 38.87 25.2275 38.87 23.5462C38.87 22.9569 38.8353 22.2982 38.766 21.5702C38.714 20.8249 38.688 20.3655 38.688 20.1922C38.688 20.0015 38.714 19.8802 38.766 19.8282C38.818 19.7762 38.9133 19.7502 39.052 19.7502C39.364 19.7502 39.6847 19.9669 40.014 20.4002C40.3433 20.8162 40.508 21.4315 40.508 22.2462C40.508 26.7875 39.676 30.5142 38.012 33.4262C36.348 36.3382 34.4413 37.7942 32.292 37.7942C31.2173 37.7942 30.3247 37.3262 29.614 36.3902C28.9207 35.4542 28.574 34.3535 28.574 33.0882C28.574 31.8229 28.9467 29.7255 29.692 26.7962C30.4373 23.8495 30.81 21.7522 30.81 20.5042ZM57.0345 19.7502C57.1731 19.7502 57.3638 19.8715 57.6065 20.1142C57.8491 20.3395 57.9705 20.5042 57.9705 20.6082C57.9705 20.6949 57.9531 20.7642 57.9185 20.8162C57.9011 20.8682 57.8491 20.9375 57.7625 21.0242C57.6758 21.0935 57.5978 21.1542 57.5285 21.2062C56.9738 21.6049 56.5578 21.9515 56.2805 22.2462C56.0031 22.5409 55.6478 22.9569 55.2145 23.4942C54.7985 24.0142 54.4171 24.4909 54.0705 24.9242C53.7411 25.3402 53.2211 26.0075 52.5105 26.9262C51.3318 28.4342 50.7338 29.1969 50.7165 29.2142C51.2365 30.0115 51.9558 31.0775 52.8745 32.4122C53.8105 33.7295 54.4951 34.7349 54.9285 35.4282C55.3618 36.1215 55.5785 36.6329 55.5785 36.9622C55.5785 37.2915 55.4658 37.4562 55.2405 37.4562C54.8418 37.4562 54.0965 36.7802 53.0045 35.4282C51.9125 34.0762 50.7858 32.4555 49.6245 30.5662C46.9205 33.9635 45.2911 35.9655 44.7365 36.5722C44.1818 37.1615 43.6965 37.4562 43.2805 37.4562C43.1418 37.4562 42.9858 37.3869 42.8125 37.2482C42.6565 37.0922 42.5785 36.9709 42.5785 36.8842C42.5785 36.7802 42.5958 36.6935 42.6305 36.6242C42.6651 36.5549 42.6998 36.5029 42.7345 36.4682C42.7691 36.4162 42.9251 36.2515 43.2025 35.9742C44.4678 34.6742 46.3485 32.4382 48.8445 29.2662C46.4871 25.2102 45.3085 22.1942 45.3085 20.2182C45.3085 19.9062 45.4125 19.7502 45.6205 19.7502C46.0018 19.7502 46.3485 19.8629 46.6605 20.0882C46.9898 20.3135 47.1545 20.5735 47.1545 20.8682C47.1545 22.5842 48.0645 24.9329 49.8845 27.9142C52.7791 24.1355 54.5991 21.8302 55.3445 20.9982C56.0898 20.1662 56.6531 19.7502 57.0345 19.7502ZM64.0423 30.5662C62.1876 35.0035 61.0523 37.6815 60.6363 38.6002C60.2203 39.5362 59.9429 40.0042 59.8043 40.0042C59.6656 40.0042 59.4923 39.8829 59.2843 39.6402C59.0936 39.3975 58.9983 39.2069 58.9983 39.0682C58.9983 38.1495 61.8063 31.4502 67.4223 18.9702C67.4916 18.8315 67.5436 18.7189 67.5783 18.6322C67.6129 18.5455 67.6389 18.4849 67.6563 18.4502C67.6909 18.3982 67.7169 18.3635 67.7343 18.3462C67.7516 18.3115 67.7689 18.2855 67.7863 18.2682C67.8556 18.2335 67.9163 18.2162 67.9683 18.2162C68.1069 18.2162 68.2976 18.3982 68.5403 18.7622C68.7829 19.1089 68.9043 19.4469 68.9043 19.7762C68.9043 20.1055 68.6269 20.8595 68.0723 22.0382C67.5349 23.2169 66.8329 24.6729 65.9663 26.4062C65.1169 28.1395 64.4756 29.5262 64.0423 30.5662ZM73.3139 20.5042C73.3139 20.1922 73.3312 19.9929 73.3659 19.9062C73.4179 19.8022 73.5392 19.7502 73.7299 19.7502C73.9206 19.7502 74.1546 19.9409 74.4319 20.3222C74.7266 20.7035 74.8739 21.1975 74.8739 21.8042C74.8739 22.4109 74.4926 24.1529 73.7299 27.0302C72.9846 29.9075 72.6119 31.8489 72.6119 32.8542C72.6119 33.8595 72.8286 34.6915 73.2619 35.3502C73.6952 36.0089 74.2412 36.3382 74.8999 36.3382C75.5759 36.3382 76.2779 36.0002 77.0059 35.3242C77.7512 34.6309 78.4446 33.7295 79.0859 32.6202C79.7446 31.4935 80.2906 30.1242 80.7239 28.5122C81.1572 26.8829 81.3739 25.2275 81.3739 23.5462C81.3739 22.9569 81.3392 22.2982 81.2699 21.5702C81.2179 20.8249 81.1919 20.3655 81.1919 20.1922C81.1919 20.0015 81.2179 19.8802 81.2699 19.8282C81.3219 19.7762 81.4172 19.7502 81.5559 19.7502C81.8679 19.7502 82.1886 19.9669 82.5179 20.4002C82.8472 20.8162 83.0119 21.4315 83.0119 22.2462C83.0119 26.7875 82.1799 30.5142 80.5159 33.4262C78.8519 36.3382 76.9452 37.7942 74.7959 37.7942C73.7212 37.7942 72.8286 37.3262 72.1179 36.3902C71.4246 35.4542 71.0779 34.3535 71.0779 33.0882C71.0779 31.8229 71.4506 29.7255 72.1959 26.7962C72.9412 23.8495 73.3139 21.7522 73.3139 20.5042ZM86.9544 37.4822C86.781 37.4822 86.5904 37.3609 86.3824 37.1182C86.1744 36.8582 86.0704 36.5462 86.0704 36.1822C86.0704 35.8182 86.6337 33.3915 87.7604 28.9022C88.9044 24.4129 89.4764 21.6135 89.4764 20.5042C89.4764 20.1922 89.4937 19.9929 89.5284 19.9062C89.5804 19.8022 89.7104 19.7502 89.9184 19.7502C90.1264 19.7502 90.3517 19.9409 90.5944 20.3222C90.8544 20.7035 90.9844 21.1109 90.9844 21.5442C90.9844 22.7055 90.343 25.6435 89.0604 30.3582C88.9217 30.8435 88.7484 31.5022 88.5404 32.3342C88.3324 33.1489 88.159 33.8075 88.0204 34.3102C87.8817 34.8129 87.7344 35.3329 87.5784 35.8702C87.2664 36.9449 87.0584 37.4822 86.9544 37.4822ZM107.305 19.6722C108.813 19.6722 110.416 20.0882 112.115 20.9202C113.831 21.7349 115.295 22.8702 116.509 24.3262C117.739 25.7649 118.355 27.2555 118.355 28.7982C118.355 29.8902 117.653 31.1469 116.249 32.5682C114.845 33.9895 113.215 35.1942 111.361 36.1822C109.506 37.1702 107.955 37.6642 106.707 37.6642C106.36 37.6642 106.031 37.4389 105.719 36.9882C105.424 36.5375 105.277 36.0175 105.277 35.4282C105.277 34.8389 105.779 32.7069 106.785 29.0322C107.79 25.3402 108.293 22.9829 108.293 21.9602C108.293 21.6482 108.301 21.4489 108.319 21.3622C107.816 21.2235 107.435 21.0415 107.175 20.8162C106.915 20.5909 106.785 20.3655 106.785 20.1402C106.785 19.8282 106.958 19.6722 107.305 19.6722ZM116.691 28.7462C116.691 27.3595 115.954 25.9469 114.481 24.5082C113.025 23.0695 111.343 22.0989 109.437 21.5962C109.662 21.9602 109.775 22.3415 109.775 22.7402C109.775 23.1389 109.757 23.4509 109.723 23.6762C109.705 23.8842 109.662 24.1529 109.593 24.4822C109.523 24.7942 109.454 25.0975 109.385 25.3922C109.315 25.6695 109.211 26.0595 109.073 26.5622C108.934 27.0649 108.813 27.5155 108.709 27.9142C108.605 28.2955 108.449 28.8415 108.241 29.5522C108.05 30.2629 107.885 30.8782 107.747 31.3982C107.331 32.8022 107.027 34.3535 106.837 36.0522C107.79 36.0175 108.865 35.7055 110.061 35.1162C111.274 34.5269 112.349 33.8422 113.285 33.0622C114.238 32.2822 115.044 31.4935 115.703 30.6962C116.361 29.8815 116.691 29.2315 116.691 28.7462ZM129.842 29.1102C129.842 30.0115 129.382 30.7309 128.464 31.2682C127.545 31.7882 126.488 32.0482 125.292 32.0482C124.096 32.0482 122.839 31.8835 121.522 31.5542C121.244 32.4382 121.106 33.2269 121.106 33.9202C121.106 34.6135 121.348 35.1595 121.834 35.5582C122.319 35.9395 122.96 36.1302 123.758 36.1302C124.555 36.1302 125.404 35.9655 126.306 35.6362C127.207 35.3069 127.718 35.1422 127.84 35.1422C128.152 35.1422 128.308 35.2809 128.308 35.5582C128.308 35.9049 127.796 36.3382 126.774 36.8582C125.751 37.3609 124.815 37.6122 123.966 37.6122C122.77 37.6122 121.747 37.2395 120.898 36.4942C120.066 35.7315 119.65 34.7522 119.65 33.5562C119.65 32.3429 119.962 31.0689 120.586 29.7342C121.21 28.3995 122.024 27.2815 123.03 26.3802C124.035 25.4615 125.023 25.0022 125.994 25.0022C126.982 25.0022 127.866 25.4615 128.646 26.3802C129.443 27.2815 129.842 28.1915 129.842 29.1102ZM126.202 26.4582C125.422 26.4582 124.642 26.8395 123.862 27.6022C123.099 28.3649 122.466 29.3182 121.964 30.4622C122.969 30.7049 123.966 30.8262 124.954 30.8262C125.959 30.8262 126.774 30.6615 127.398 30.3322C128.039 29.9855 128.36 29.5435 128.36 29.0062C128.36 28.4515 128.126 27.8882 127.658 27.3162C127.19 26.7442 126.704 26.4582 126.202 26.4582ZM138.258 25.0022C138.813 25.0022 139.316 25.2969 139.766 25.8862C140.234 26.4582 140.468 26.9089 140.468 27.2382C140.468 27.5502 140.364 27.7062 140.156 27.7062C139.948 27.7062 139.645 27.5155 139.246 27.1342C138.848 26.7529 138.432 26.5622 137.998 26.5622C137.565 26.5622 136.88 26.8655 135.944 27.4722C135.008 28.0615 134.54 28.6509 134.54 29.2402C134.54 29.6562 135.121 30.2369 136.282 30.9822C136.768 31.2942 137.253 31.6322 137.738 31.9962C138.9 32.8629 139.48 33.7122 139.48 34.5442C139.48 35.3762 139.038 36.0955 138.154 36.7022C137.27 37.3089 136.239 37.6122 135.06 37.6122C133.882 37.6122 132.824 37.3175 131.888 36.7282C130.97 36.1389 130.51 35.6102 130.51 35.1422C130.51 34.9862 130.554 34.8562 130.64 34.7522C130.744 34.6482 130.857 34.5962 130.978 34.5962C131.117 34.5962 131.342 34.7262 131.654 34.9862C132.642 35.7489 133.665 36.1302 134.722 36.1302C136.768 36.1302 137.79 35.5929 137.79 34.5182C137.79 34.0502 137.53 33.5909 137.01 33.1402C136.508 32.6722 135.953 32.2735 135.346 31.9442C134.74 31.6149 134.176 31.1989 133.656 30.6962C133.154 30.1935 132.902 29.6822 132.902 29.1622C132.902 28.2609 133.552 27.3422 134.852 26.4062C136.17 25.4702 137.305 25.0022 138.258 25.0022ZM145.572 21.0762C145.572 20.7815 145.667 20.5215 145.858 20.2962C146.066 20.0709 146.291 19.9582 146.534 19.9582C146.777 19.9582 147.054 20.2529 147.366 20.8422C147.678 21.4315 147.834 21.8562 147.834 22.1162C147.834 22.5495 147.687 22.7662 147.392 22.7662C147.028 22.7662 146.629 22.5582 146.196 22.1422C145.78 21.7262 145.572 21.3709 145.572 21.0762ZM144.454 26.1722C144.575 25.7389 144.688 25.4355 144.792 25.2622C144.913 25.0889 145.052 25.0022 145.208 25.0022C145.364 25.0022 145.537 25.1235 145.728 25.3662C145.919 25.5915 146.014 25.8169 146.014 26.0422C146.014 27.2035 145.13 30.5749 143.362 36.1562C143.033 37.1269 142.695 37.6122 142.348 37.6122C142.175 37.6122 142.027 37.5429 141.906 37.4042C141.785 37.2482 141.724 37.0662 141.724 36.8582C141.724 36.6329 141.802 36.2342 141.958 35.6622C142.131 35.0729 142.348 34.3362 142.608 33.4522C142.868 32.5509 143.067 31.8142 143.206 31.2422C143.362 30.6529 143.527 29.9769 143.7 29.2142C143.891 28.4342 144.029 27.8362 144.116 27.4202C144.22 27.0042 144.333 26.5882 144.454 26.1722ZM157.755 30.5402C157.755 31.2855 157.383 32.1782 156.637 33.2182C156.048 34.5355 155.346 36.6329 154.531 39.5102C154.306 40.3422 154.037 41.1482 153.725 41.9282C153.101 43.5055 152.139 44.2942 150.839 44.2942C149.557 44.2942 148.508 43.9822 147.693 43.3582C146.896 42.7515 146.497 42.1102 146.497 41.4342C146.497 41.2782 146.549 41.1049 146.653 40.9142C146.757 40.7235 146.879 40.6282 147.017 40.6282C147.156 40.6282 147.329 40.7495 147.537 40.9922C147.763 41.2522 147.971 41.5295 148.161 41.8242C148.369 42.1189 148.699 42.3875 149.149 42.6302C149.6 42.8902 150.051 43.0202 150.501 43.0202C150.952 43.0202 151.299 42.9249 151.541 42.7342C151.801 42.5435 152.018 42.3009 152.191 42.0062C152.365 41.7289 152.538 41.3302 152.711 40.8102C152.902 40.3075 153.058 39.8309 153.179 39.3802C153.613 37.7682 153.951 36.5722 154.193 35.7922C152.72 37.0055 151.472 37.6122 150.449 37.6122C149.652 37.6122 148.95 37.3089 148.343 36.7022C147.754 36.0782 147.459 35.3849 147.459 34.6222C147.459 33.4955 147.823 32.1782 148.551 30.6702C149.279 29.1622 150.215 27.8449 151.359 26.7182C152.503 25.5742 153.561 25.0022 154.531 25.0022C155.519 25.0022 156.256 25.4702 156.741 26.4062C157.244 27.3422 157.495 28.3302 157.495 29.3702V29.6302C157.669 29.8555 157.755 30.1589 157.755 30.5402ZM150.371 36.0782C151.429 36.0782 152.547 35.5322 153.725 34.4402C154.921 33.3482 155.84 31.9529 156.481 30.2542C156.36 30.0462 156.256 29.7169 156.169 29.2662C155.961 27.8795 155.675 27.0389 155.311 26.7442C155.155 26.6055 154.956 26.5362 154.713 26.5362C153.968 26.5362 153.136 27.0389 152.217 28.0442C151.299 29.0495 150.527 30.2022 149.903 31.5022C149.279 32.7849 148.967 33.8595 148.967 34.7262C148.967 35.1249 149.106 35.4542 149.383 35.7142C149.661 35.9569 149.99 36.0782 150.371 36.0782ZM169.057 25.0022C169.508 25.0022 170.002 25.3402 170.539 26.0162C171.094 26.6749 171.371 27.3682 171.371 28.0962C171.371 29.1882 171.085 30.6009 170.513 32.3342C169.959 34.0502 169.465 35.3589 169.031 36.2602C168.615 37.1615 168.225 37.6122 167.861 37.6122C167.584 37.6122 167.445 37.4649 167.445 37.1702C167.445 36.8755 167.515 36.5029 167.653 36.0522C167.809 35.5842 168.035 34.9515 168.329 34.1542C169.352 31.4329 169.863 29.4482 169.863 28.2002C169.863 27.8015 169.742 27.4635 169.499 27.1862C169.274 26.8915 169.075 26.7442 168.901 26.7442C168.745 26.7442 168.598 26.7789 168.459 26.8482C168.321 26.9002 168.165 26.9955 167.991 27.1342C167.835 27.2729 167.679 27.4202 167.523 27.5762C167.385 27.7149 167.203 27.9229 166.977 28.2002C166.769 28.4775 166.587 28.7289 166.431 28.9542C166.275 29.1622 166.059 29.4655 165.781 29.8642C165.521 30.2455 165.305 30.5662 165.131 30.8262C164.438 31.9182 163.918 32.7242 163.571 33.2442C163.225 33.7469 162.8 34.4055 162.297 35.2202C161.309 36.8149 160.755 37.6122 160.633 37.6122C160.443 37.6122 160.235 37.4909 160.009 37.2482C159.801 36.9882 159.697 36.7715 159.697 36.5982C159.697 36.4249 159.767 36.1129 159.905 35.6622C160.477 33.8249 160.841 32.5509 160.997 31.8402C161.517 29.6215 161.777 27.7409 161.777 26.1982C161.777 25.3835 161.933 24.9762 162.245 24.9762C162.488 24.9762 162.731 25.1409 162.973 25.4702C163.216 25.7822 163.337 26.2069 163.337 26.7442C163.337 27.2815 163.147 28.3735 162.765 30.0202C162.401 31.6669 161.994 33.1055 161.543 34.3362C163.554 30.8869 165.114 28.4689 166.223 27.0822C167.333 25.6955 168.277 25.0022 169.057 25.0022ZM183.162 29.1102C183.162 30.0115 182.703 30.7309 181.784 31.2682C180.865 31.7882 179.808 32.0482 178.612 32.0482C177.416 32.0482 176.159 31.8835 174.842 31.5542C174.565 32.4382 174.426 33.2269 174.426 33.9202C174.426 34.6135 174.669 35.1595 175.154 35.5582C175.639 35.9395 176.281 36.1302 177.078 36.1302C177.875 36.1302 178.725 35.9655 179.626 35.6362C180.527 35.3069 181.039 35.1422 181.16 35.1422C181.472 35.1422 181.628 35.2809 181.628 35.5582C181.628 35.9049 181.117 36.3382 180.094 36.8582C179.071 37.3609 178.135 37.6122 177.286 37.6122C176.09 37.6122 175.067 37.2395 174.218 36.4942C173.386 35.7315 172.97 34.7522 172.97 33.5562C172.97 32.3429 173.282 31.0689 173.906 29.7342C174.53 28.3995 175.345 27.2815 176.35 26.3802C177.355 25.4615 178.343 25.0022 179.314 25.0022C180.302 25.0022 181.186 25.4615 181.966 26.3802C182.763 27.2815 183.162 28.1915 183.162 29.1102ZM179.522 26.4582C178.742 26.4582 177.962 26.8395 177.182 27.6022C176.419 28.3649 175.787 29.3182 175.284 30.4622C176.289 30.7049 177.286 30.8262 178.274 30.8262C179.279 30.8262 180.094 30.6615 180.718 30.3322C181.359 29.9855 181.68 29.5435 181.68 29.0062C181.68 28.4515 181.446 27.8882 180.978 27.3162C180.51 26.7442 180.025 26.4582 179.522 26.4582ZM186.249 27.5242L186.197 26.1202C186.197 25.5309 186.24 25.2015 186.327 25.1322C186.413 25.0455 186.5 25.0022 186.587 25.0022C186.829 25.0022 187.072 25.1842 187.315 25.5482C187.557 25.9122 187.679 26.3022 187.679 26.7182C187.679 27.8275 187.583 28.9369 187.393 30.0462C187.913 28.9542 188.467 28.0182 189.057 27.2382C189.646 26.4409 190.192 25.8862 190.695 25.5742C191.197 25.2622 191.648 25.1062 192.047 25.1062C192.809 25.1062 193.191 25.2622 193.191 25.5742C193.191 25.7995 192.922 26.0249 192.385 26.2502C191.362 26.6489 190.539 27.2729 189.915 28.1222C189.291 28.9542 188.675 30.0375 188.069 31.3722C187.462 32.6895 186.994 33.8682 186.665 34.9082C186.353 35.9482 186.119 36.6762 185.963 37.0922C185.807 37.5082 185.607 37.7162 185.365 37.7162C185.174 37.7162 185.009 37.5949 184.871 37.3522C184.732 37.1095 184.663 36.8755 184.663 36.6502C184.663 36.4075 184.715 36.0955 184.819 35.7142C185.304 34.1195 185.659 32.7589 185.885 31.6322C186.127 30.4882 186.249 29.1189 186.249 27.5242Z" fill="white"/>
<path d="M49.4968 5.5136C38.7881 7.34308 29.7492 9.60067 22.7471 12.1588C15.5107 14.8025 10.3696 17.7951 7.84909 21.0346C6.57743 22.669 5.97783 24.3605 6.10002 26.0744C6.22181 27.7827 7.0554 29.4385 8.50531 31.0178C11.3905 34.1605 16.8233 37.1181 24.5553 39.758C40.045 45.0466 63.8418 48.7406 90.9264 50.0793C118.018 51.4183 146.325 50.2981 169.894 46.9518C181.679 45.2787 191.83 43.1129 199.896 40.5909C207.947 38.0734 213.975 35.185 217.463 32.0371C219.212 30.4589 220.322 28.8171 220.735 27.1268C221.151 25.4224 220.845 23.7266 219.873 22.0867C217.953 18.85 213.417 15.7936 206.538 13.0331C192.739 7.49557 170.158 3.41767 143.568 1.63482C130.251 0.741968 110.91 1.19603 94.617 1.87144C86.4669 2.2093 79.0735 2.60283 73.5692 2.91187C71.7602 3.01344 70.159 3.10562 68.8032 3.18368C66.02 3.34391 64.2713 3.44459 63.8833 3.44459C63.2812 3.4446 62.8523 3.44439 62.5253 3.42464C62.1955 3.40472 62.0227 3.36681 61.9145 3.31948C61.7781 3.25985 61.6916 3.17134 61.503 2.82523C61.8646 2.74267 62.4234 2.65365 63.1721 2.56093C64.7082 2.37071 66.9797 2.17245 69.823 1.97732C75.5066 1.58726 83.446 1.21164 92.2906 0.936749C109.984 0.386839 131.272 0.240983 145.35 1.18497C173.542 3.07519 197.386 7.3953 211.884 13.2133C219.154 16.1306 223.684 19.2699 225.537 22.3937C226.451 23.934 226.708 25.4597 226.338 26.9737C225.964 28.5019 224.938 30.0756 223.176 31.6658C219.642 34.8545 213.418 37.8673 204.909 40.5278C196.415 43.1838 185.696 45.4728 173.222 47.2438C148.275 50.7858 118.291 51.9736 89.5871 50.5549C60.876 49.1359 35.7229 45.2214 19.4105 39.652C11.2415 36.8629 5.68012 33.7908 2.79842 30.6519C1.36489 29.0905 0.62185 27.5426 0.513857 26.0279C0.406262 24.5187 0.923724 22.9678 2.156 21.384C2.74242 20.6303 3.8177 19.7896 5.31168 18.8941C6.79514 18.0048 8.65025 17.0853 10.7553 16.1616C14.9647 14.3145 20.1374 12.4662 25.2559 10.8217C30.3727 9.17763 35.4255 7.74031 39.3908 6.71441C41.3738 6.2014 43.0818 5.79203 44.3881 5.51131C45.719 5.22531 46.5777 5.08574 46.901 5.08574C48.1494 5.08574 48.9726 5.29253 49.4968 5.5136ZM61.1451 2.93223C61.145 2.93221 61.1467 2.93116 61.1506 2.9292C61.1472 2.93127 61.1453 2.93225 61.1451 2.93223Z" fill="#C37935" stroke="#C37935"/>
</svg>
